<svg xmlns="http://www.w3.org/2000/svg" xmlns:xlink="http://www.w3.org/1999/xlink" viewBox="0 0 2507.32 2236.75"><defs><style>.cls-1{isolation:isolate;}.cls-2,.cls-84{opacity:0.15;}.cls-110,.cls-113,.cls-16,.cls-2,.cls-43,.cls-62{mix-blend-mode:multiply;}.cls-20,.cls-3,.cls-62{fill:#afb6e5;}.cls-3,.cls-63{opacity:0;}.cls-4{fill:#9fa5d0;}.cls-4,.cls-87{opacity:0.09;}.cls-5{fill:#8f95bb;}.cls-5,.cls-88{opacity:0.18;}.cls-6{fill:#7f84a7;}.cls-6,.cls-89{opacity:0.27;}.cls-7{fill:#6f7492;}.cls-7,.cls-90{opacity:0.36;}.cls-8{fill:#5f637d;}.cls-8,.cls-91{opacity:0.45;}.cls-9{fill:#505368;}.cls-9,.cls-92{opacity:0.55;}.cls-10{fill:#404253;}.cls-10,.cls-93{opacity:0.64;}.cls-11{fill:#30323e;}.cls-11,.cls-94{opacity:0.73;}.cls-12{fill:#20212a;}.cls-12,.cls-95{opacity:0.82;}.cls-13{fill:#101115;}.cls-13,.cls-96{opacity:0.91;}.cls-14{fill:url(#linear-gradient);}.cls-15{fill:url(#linear-gradient-2);}.cls-16{fill:url(#linear-gradient-3);}.cls-108,.cls-17{fill:#fff;}.cls-18{fill:url(#linear-gradient-4);}.cls-19{fill:url(#linear-gradient-5);}.cls-21{fill:url(#linear-gradient-6);}.cls-22{fill:url(#linear-gradient-7);}.cls-23{fill:url(#linear-gradient-8);}.cls-24{fill:url(#linear-gradient-9);}.cls-25{fill:url(#linear-gradient-10);}.cls-26{fill:url(#linear-gradient-11);}.cls-27{fill:url(#linear-gradient-12);}.cls-28{fill:url(#linear-gradient-13);}.cls-29{fill:url(#linear-gradient-14);}.cls-30{fill:url(#linear-gradient-15);}.cls-31{fill:url(#linear-gradient-16);}.cls-32{fill:url(#linear-gradient-17);}.cls-33{fill:url(#linear-gradient-18);}.cls-34{fill:url(#linear-gradient-19);}.cls-35{fill:url(#linear-gradient-20);}.cls-36{fill:url(#linear-gradient-21);}.cls-37{fill:url(#linear-gradient-22);}.cls-38{fill:url(#linear-gradient-23);}.cls-39{fill:url(#linear-gradient-24);}.cls-40{fill:url(#linear-gradient-25);}.cls-41{fill:url(#linear-gradient-26);}.cls-42{fill:url(#linear-gradient-27);}.cls-43{opacity:0.3;}.cls-44{fill:#8f92cc;opacity:0.38;}.cls-45{fill:#8a8dc8;opacity:0.44;}.cls-46{fill:#8687c5;opacity:0.49;}.cls-47{fill:#8182c1;opacity:0.55;}.cls-48{fill:#7c7dbd;opacity:0.61;}.cls-49{fill:#7778b9;opacity:0.66;}.cls-50{fill:#7372b6;opacity:0.72;}.cls-51{fill:#6e6db2;opacity:0.77;}.cls-52{fill:#6968ae;opacity:0.83;}.cls-53{fill:#6463aa;opacity:0.89;}.cls-54{fill:#605da7;opacity:0.94;}.cls-55{fill:#5b58a3;}.cls-56{fill:url(#linear-gradient-28);}.cls-105,.cls-107,.cls-57,.cls-86,.cls-98{mix-blend-mode:color-dodge;}.cls-57{fill:url(#radial-gradient);}.cls-58{fill:url(#linear-gradient-29);}.cls-59{fill:url(#linear-gradient-30);}.cls-60{fill:url(#linear-gradient-31);}.cls-61{fill:url(#linear-gradient-32);}.cls-64{opacity:0.01;}.cls-65{opacity:0.01;}.cls-66{opacity:0.02;}.cls-67{opacity:0.03;}.cls-68{opacity:0.04;}.cls-69{opacity:0.04;}.cls-70{opacity:0.05;}.cls-71{opacity:0.06;}.cls-72{opacity:0.06;}.cls-73{opacity:0.07;}.cls-74{opacity:0.08;}.cls-75{opacity:0.09;}.cls-76{opacity:0.09;}.cls-77{opacity:0.1;}.cls-78{opacity:0.11;}.cls-79{opacity:0.11;}.cls-80{opacity:0.12;}.cls-81{opacity:0.13;}.cls-82{opacity:0.14;}.cls-83{opacity:0.14;}.cls-85{fill:url(#linear-gradient-33);}.cls-86{fill:url(#radial-gradient-2);}.cls-87{fill:#a7addf;}.cls-88{fill:#a0a5d9;}.cls-89{fill:#989cd3;}.cls-90{fill:#9094cd;}.cls-91{fill:#898bc7;}.cls-92{fill:#8183c1;}.cls-93{fill:#7a7abb;}.cls-94{fill:#7272b5;}.cls-95{fill:#6a69af;}.cls-96{fill:#6361a9;}.cls-97{fill:url(#linear-gradient-34);}.cls-98{fill:url(#radial-gradient-3);}.cls-99{fill:#ced3f4;}.cls-100{fill:url(#linear-gradient-35);}.cls-101{fill:url(#linear-gradient-36);}.cls-102{fill:url(#linear-gradient-37);}.cls-103{opacity:0.2;}.cls-104{fill:url(#linear-gradient-38);}.cls-105{fill:url(#radial-gradient-4);}.cls-106{fill:url(#linear-gradient-39);}.cls-107{fill:url(#radial-gradient-5);}.cls-108{opacity:0.95;}.cls-109{fill:url(#linear-gradient-40);}.cls-110{fill:url(#linear-gradient-41);}.cls-111{fill:url(#linear-gradient-42);}.cls-112{fill:url(#linear-gradient-43);}.cls-113{fill:url(#linear-gradient-44);}.cls-114{fill:url(#linear-gradient-45);}.cls-115{fill:#00c7c5;}.cls-116{fill:url(#linear-gradient-46);}.cls-117{fill:url(#linear-gradient-47);}.cls-118{fill:url(#linear-gradient-48);}.cls-119{fill:url(#linear-gradient-49);}.cls-120{fill:url(#linear-gradient-50);}.cls-121{fill:url(#linear-gradient-51);}.cls-122{fill:url(#linear-gradient-52);}.cls-123{fill:url(#linear-gradient-53);}.cls-124{fill:url(#linear-gradient-54);}.cls-125{fill:url(#linear-gradient-55);}.cls-126{fill:url(#linear-gradient-56);}.cls-127{fill:url(#linear-gradient-57);}.cls-128{fill:url(#linear-gradient-58);}.cls-129{fill:url(#linear-gradient-59);}.cls-130{fill:url(#linear-gradient-60);}.cls-131{fill:url(#linear-gradient-61);}.cls-132{fill:url(#linear-gradient-62);}.cls-133{fill:url(#linear-gradient-63);}</style><linearGradient id="linear-gradient" x1="-2367.44" y1="1881.31" x2="-1318.94" y2="1881.31" gradientTransform="translate(3195.77)" gradientUnits="userSpaceOnUse"><stop offset="0" stop-color="#cdd2f3"/><stop offset="0.43" stop-color="#e5e9ff"/><stop offset="0.48" stop-color="#eff2ff"/><stop offset="0.54" stop-color="#fff"/><stop offset="0.59" stop-color="#ebedf9"/><stop offset="0.7" stop-color="#b9bfe8"/><stop offset="0.72" stop-color="#afb6e5"/><stop offset="0.91" stop-color="#afb6e5"/><stop offset="0.95" stop-color="#bac0ea"/><stop offset="1" stop-color="#cdd2f3"/></linearGradient><linearGradient id="linear-gradient-2" x1="1439.36" y1="1541" x2="1110.86" y2="2042.05" gradientUnits="userSpaceOnUse"><stop offset="0" stop-color="#afb6e5"/><stop offset="0.14" stop-color="#b6bce8"/><stop offset="0.35" stop-color="#c8cdf1"/><stop offset="0.58" stop-color="#e5e9ff"/><stop offset="0.86" stop-color="#f5f6ff"/><stop offset="1" stop-color="#fff"/></linearGradient><linearGradient id="linear-gradient-3" x1="1476.76" y1="1595.81" x2="1358.02" y2="1827.35" gradientUnits="userSpaceOnUse"><stop offset="0.18" stop-color="#4d5a96"/><stop offset="0.25" stop-color="#6a75a7"/><stop offset="0.36" stop-color="#979fc2"/><stop offset="0.48" stop-color="#bdc2d8"/><stop offset="0.6" stop-color="#dadce9"/><stop offset="0.71" stop-color="#eef0f5"/><stop offset="0.83" stop-color="#fbfbfd"/><stop offset="0.93" stop-color="#fff"/></linearGradient><linearGradient id="linear-gradient-4" x1="-445.48" y1="676.52" x2="2891.05" y2="1408.74" xlink:href="#linear-gradient-2"/><linearGradient id="linear-gradient-5" x1="-2452.9" y1="117.09" x2="-1087.78" y2="2169.82" gradientTransform="translate(3195.77)" gradientUnits="userSpaceOnUse"><stop offset="0.01" stop-color="#273b98"/><stop offset="0.23" stop-color="#2f2ba2"/><stop offset="0.4" stop-color="#361cac"/><stop offset="0.77" stop-color="#440b89"/><stop offset="1" stop-color="#4e0070"/></linearGradient><linearGradient id="linear-gradient-6" x1="1092.84" y1="-190.76" x2="2234.09" y2="2095.71" gradientUnits="userSpaceOnUse"><stop offset="0" stop-color="#b3bae7"/><stop offset="0.19" stop-color="#b7bde9"/><stop offset="0.28" stop-color="#bac0e9"/><stop offset="0.41" stop-color="#afb6e5"/><stop offset="0.91" stop-color="#afb6e5"/><stop offset="1" stop-color="#b3bae7"/></linearGradient><linearGradient id="linear-gradient-7" x1="1092.37" y1="-190.36" x2="2233.56" y2="2095.98" gradientUnits="userSpaceOnUse"><stop offset="0" stop-color="#b4bbe8"/><stop offset="0.19" stop-color="#b9beea"/><stop offset="0.28" stop-color="#bcc2ea"/><stop offset="0.41" stop-color="#b2b8e6"/><stop offset="0.43" stop-color="#b2b8e6"/><stop offset="0.54" stop-color="#b3b9e6"/><stop offset="0.72" stop-color="#afb6e5"/><stop offset="0.91" stop-color="#afb6e5"/><stop offset="1" stop-color="#b4bbe8"/></linearGradient><linearGradient id="linear-gradient-8" x1="1091.9" y1="-189.96" x2="2233.02" y2="2096.24" gradientUnits="userSpaceOnUse"><stop offset="0" stop-color="#b5bce8"/><stop offset="0.19" stop-color="#bac0ea"/><stop offset="0.28" stop-color="#bdc3eb"/><stop offset="0.41" stop-color="#b4bbe7"/><stop offset="0.43" stop-color="#b4bbe7"/><stop offset="0.54" stop-color="#b7bde7"/><stop offset="0.72" stop-color="#afb6e5"/><stop offset="0.91" stop-color="#afb6e5"/><stop offset="1" stop-color="#b5bce8"/></linearGradient><linearGradient id="linear-gradient-9" x1="1091.42" y1="-189.56" x2="2232.48" y2="2096.51" gradientUnits="userSpaceOnUse"><stop offset="0" stop-color="#b7bde9"/><stop offset="0.19" stop-color="#bcc1eb"/><stop offset="0.28" stop-color="#bfc5ec"/><stop offset="0.41" stop-color="#b7bde9"/><stop offset="0.43" stop-color="#b7bde9"/><stop offset="0.54" stop-color="#bac0e9"/><stop offset="0.72" stop-color="#afb6e5"/><stop offset="0.91" stop-color="#afb6e5"/><stop offset="1" stop-color="#b7bde9"/></linearGradient><linearGradient id="linear-gradient-10" x1="1090.95" y1="-189.17" x2="2231.94" y2="2096.78" gradientUnits="userSpaceOnUse"><stop offset="0" stop-color="#b8bfe9"/><stop offset="0.19" stop-color="#bdc3ec"/><stop offset="0.28" stop-color="#c1c6ec"/><stop offset="0.41" stop-color="#b9c0ea"/><stop offset="0.43" stop-color="#b9c0ea"/><stop offset="0.54" stop-color="#bec4ea"/><stop offset="0.72" stop-color="#afb6e5"/><stop offset="0.91" stop-color="#afb6e5"/><stop offset="1" stop-color="#b8bfe9"/></linearGradient><linearGradient id="linear-gradient-11" x1="1090.48" y1="-188.77" x2="2231.4" y2="2097.04" gradientUnits="userSpaceOnUse"><stop offset="0" stop-color="#b9c0ea"/><stop offset="0.19" stop-color="#bfc4ed"/><stop offset="0.28" stop-color="#c2c8ed"/><stop offset="0.41" stop-color="#bcc2eb"/><stop offset="0.43" stop-color="#bcc2eb"/><stop offset="0.54" stop-color="#c2c7eb"/><stop offset="0.72" stop-color="#afb6e5"/><stop offset="0.91" stop-color="#afb6e5"/><stop offset="1" stop-color="#b9c0ea"/></linearGradient><linearGradient id="linear-gradient-12" x1="1090" y1="-188.37" x2="2230.86" y2="2097.31" gradientUnits="userSpaceOnUse"><stop offset="0" stop-color="#bac1ea"/><stop offset="0.19" stop-color="#c0c6ed"/><stop offset="0.28" stop-color="#c4c9ee"/><stop offset="0.41" stop-color="#bec4ec"/><stop offset="0.43" stop-color="#bec5ec"/><stop offset="0.54" stop-color="#c6cbec"/><stop offset="0.7" stop-color="#b2b9e6"/><stop offset="0.72" stop-color="#afb6e5"/><stop offset="0.91" stop-color="#afb6e5"/><stop offset="1" stop-color="#bac1ea"/><stop offset="1" stop-color="#bac1ea"/></linearGradient><linearGradient id="linear-gradient-13" x1="1089.53" y1="-187.97" x2="2230.32" y2="2097.58" gradientUnits="userSpaceOnUse"><stop offset="0" stop-color="#bcc2eb"/><stop offset="0.19" stop-color="#c2c7ee"/><stop offset="0.28" stop-color="#c6cbef"/><stop offset="0.41" stop-color="#c1c7ed"/><stop offset="0.43" stop-color="#c1c7ee"/><stop offset="0.54" stop-color="#caceee"/><stop offset="0.68" stop-color="#b6bde7"/><stop offset="0.72" stop-color="#afb6e5"/><stop offset="0.91" stop-color="#afb6e5"/><stop offset="0.99" stop-color="#bac0ea"/><stop offset="1" stop-color="#bcc2eb"/></linearGradient><linearGradient id="linear-gradient-14" x1="1089.06" y1="-187.57" x2="2229.78" y2="2097.84" gradientUnits="userSpaceOnUse"><stop offset="0" stop-color="#bdc3ec"/><stop offset="0.19" stop-color="#c4c9ef"/><stop offset="0.28" stop-color="#c7cdf0"/><stop offset="0.41" stop-color="#c3c9ef"/><stop offset="0.43" stop-color="#c4c9ef"/><stop offset="0.54" stop-color="#cdd2ef"/><stop offset="0.66" stop-color="#b9c0e8"/><stop offset="0.72" stop-color="#afb6e5"/><stop offset="0.91" stop-color="#afb6e5"/><stop offset="0.98" stop-color="#bac0ea"/><stop offset="1" stop-color="#bdc3ec"/></linearGradient><linearGradient id="linear-gradient-15" x1="1088.58" y1="-187.18" x2="2229.24" y2="2098.11" gradientUnits="userSpaceOnUse"><stop offset="0" stop-color="#bec4ec"/><stop offset="0.19" stop-color="#c5caef"/><stop offset="0.28" stop-color="#c9cef1"/><stop offset="0.41" stop-color="#c6cbf0"/><stop offset="0.43" stop-color="#c6ccf0"/><stop offset="0.53" stop-color="#d0d4f0"/><stop offset="0.54" stop-color="#d1d5f0"/><stop offset="0.65" stop-color="#bdc3ea"/><stop offset="0.72" stop-color="#afb6e5"/><stop offset="0.91" stop-color="#afb6e5"/><stop offset="0.98" stop-color="#bac0ea"/><stop offset="1" stop-color="#bec4ec"/></linearGradient><linearGradient id="linear-gradient-16" x1="1088.11" y1="-186.78" x2="2228.71" y2="2098.37" gradientUnits="userSpaceOnUse"><stop offset="0" stop-color="#bfc5ed"/><stop offset="0.19" stop-color="#c7ccf0"/><stop offset="0.28" stop-color="#cbd0f2"/><stop offset="0.41" stop-color="#c8cef1"/><stop offset="0.43" stop-color="#c9cef1"/><stop offset="0.52" stop-color="#d3d7f1"/><stop offset="0.54" stop-color="#d5d9f1"/><stop offset="0.64" stop-color="#c1c7eb"/><stop offset="0.72" stop-color="#afb6e5"/><stop offset="0.91" stop-color="#afb6e5"/><stop offset="0.98" stop-color="#bac0ea"/><stop offset="1" stop-color="#bfc5ed"/></linearGradient><linearGradient id="linear-gradient-17" x1="1087.64" y1="-186.38" x2="2228.17" y2="2098.64" gradientUnits="userSpaceOnUse"><stop offset="0" stop-color="#c1c7ed"/><stop offset="0.19" stop-color="#c8cdf1"/><stop offset="0.28" stop-color="#ccd1f2"/><stop offset="0.41" stop-color="#cbd0f2"/><stop offset="0.43" stop-color="#cbd1f3"/><stop offset="0.51" stop-color="#d5d9f3"/><stop offset="0.54" stop-color="#d9dcf3"/><stop offset="0.63" stop-color="#c5caec"/><stop offset="0.72" stop-color="#afb6e5"/><stop offset="0.91" stop-color="#afb6e5"/><stop offset="0.97" stop-color="#bac0ea"/><stop offset="1" stop-color="#c1c7ed"/></linearGradient><linearGradient id="linear-gradient-18" x1="1087.16" y1="-185.98" x2="2227.63" y2="2098.91" gradientUnits="userSpaceOnUse"><stop offset="0" stop-color="#c2c8ee"/><stop offset="0.19" stop-color="#cacff2"/><stop offset="0.28" stop-color="#ced3f3"/><stop offset="0.41" stop-color="#cdd3f3"/><stop offset="0.43" stop-color="#ced3f4"/><stop offset="0.51" stop-color="#d8dcf4"/><stop offset="0.54" stop-color="#dde0f4"/><stop offset="0.62" stop-color="#c9ceee"/><stop offset="0.72" stop-color="#afb6e5"/><stop offset="0.91" stop-color="#afb6e5"/><stop offset="0.97" stop-color="#bac0ea"/><stop offset="1" stop-color="#c2c8ee"/></linearGradient><linearGradient id="linear-gradient-19" x1="1086.69" y1="-185.58" x2="2227.09" y2="2099.17" gradientUnits="userSpaceOnUse"><stop offset="0" stop-color="#c3c9ee"/><stop offset="0.19" stop-color="#cbd0f2"/><stop offset="0.28" stop-color="#d0d4f4"/><stop offset="0.41" stop-color="#d0d5f4"/><stop offset="0.43" stop-color="#d0d6f5"/><stop offset="0.5" stop-color="#dadef5"/><stop offset="0.54" stop-color="#e1e3f5"/><stop offset="0.62" stop-color="#cdd1ef"/><stop offset="0.72" stop-color="#afb6e5"/><stop offset="0.91" stop-color="#afb6e5"/><stop offset="0.97" stop-color="#bac0ea"/><stop offset="1" stop-color="#c3c9ee"/></linearGradient><linearGradient id="linear-gradient-20" x1="1086.22" y1="-185.19" x2="2226.55" y2="2099.44" gradientUnits="userSpaceOnUse"><stop offset="0" stop-color="#c4caef"/><stop offset="0.19" stop-color="#cdd2f3"/><stop offset="0.28" stop-color="#d1d6f5"/><stop offset="0.41" stop-color="#d2d7f6"/><stop offset="0.43" stop-color="#d3d8f6"/><stop offset="0.5" stop-color="#dde1f6"/><stop offset="0.54" stop-color="#e4e7f6"/><stop offset="0.61" stop-color="#d0d5f0"/><stop offset="0.72" stop-color="#afb6e5"/><stop offset="0.91" stop-color="#afb6e5"/><stop offset="0.96" stop-color="#bac0ea"/><stop offset="1" stop-color="#c4caef"/></linearGradient><linearGradient id="linear-gradient-21" x1="1085.74" y1="-184.79" x2="2226.01" y2="2099.71" gradientUnits="userSpaceOnUse"><stop offset="0" stop-color="#c6cbf0"/><stop offset="0.19" stop-color="#cfd3f4"/><stop offset="0.28" stop-color="#d3d8f6"/><stop offset="0.41" stop-color="#d5daf7"/><stop offset="0.43" stop-color="#d6daf8"/><stop offset="0.5" stop-color="#e0e3f8"/><stop offset="0.54" stop-color="#e8eaf8"/><stop offset="0.61" stop-color="#d4d8f1"/><stop offset="0.72" stop-color="#afb6e5"/><stop offset="0.91" stop-color="#afb6e5"/><stop offset="0.96" stop-color="#bac0ea"/><stop offset="1" stop-color="#c6cbf0"/></linearGradient><linearGradient id="linear-gradient-22" x1="1085.27" y1="-184.39" x2="2225.47" y2="2099.97" gradientUnits="userSpaceOnUse"><stop offset="0" stop-color="#c7ccf0"/><stop offset="0.19" stop-color="#d0d5f4"/><stop offset="0.28" stop-color="#d5d9f7"/><stop offset="0.41" stop-color="#d7dcf8"/><stop offset="0.43" stop-color="#d8ddf9"/><stop offset="0.49" stop-color="#e2e6f9"/><stop offset="0.54" stop-color="#eceef9"/><stop offset="0.61" stop-color="#d8dcf3"/><stop offset="0.72" stop-color="#afb6e5"/><stop offset="0.91" stop-color="#afb6e5"/><stop offset="0.96" stop-color="#bac0ea"/><stop offset="1" stop-color="#c7ccf0"/></linearGradient><linearGradient id="linear-gradient-23" x1="1084.8" y1="-184" x2="2224.93" y2="2100.24" gradientUnits="userSpaceOnUse"><stop offset="0" stop-color="#c8cdf1"/><stop offset="0.19" stop-color="#d2d6f5"/><stop offset="0.28" stop-color="#d6dbf8"/><stop offset="0.41" stop-color="#dadef9"/><stop offset="0.43" stop-color="#dbdffa"/><stop offset="0.49" stop-color="#e5e8fa"/><stop offset="0.54" stop-color="#f0f1fa"/><stop offset="0.6" stop-color="#dcdff4"/><stop offset="0.72" stop-color="#afb6e5"/><stop offset="0.91" stop-color="#afb6e5"/><stop offset="0.96" stop-color="#bac0ea"/><stop offset="1" stop-color="#c8cdf1"/></linearGradient><linearGradient id="linear-gradient-24" x1="1084.32" y1="-183.6" x2="2224.39" y2="2100.51" gradientUnits="userSpaceOnUse"><stop offset="0" stop-color="#c9cff1"/><stop offset="0.19" stop-color="#d3d8f6"/><stop offset="0.28" stop-color="#d8dcf8"/><stop offset="0.41" stop-color="#dce1fa"/><stop offset="0.43" stop-color="#dde2fb"/><stop offset="0.49" stop-color="#e7eafb"/><stop offset="0.54" stop-color="#f4f5fb"/><stop offset="0.6" stop-color="#e0e3f5"/><stop offset="0.72" stop-color="#afb6e5"/><stop offset="0.91" stop-color="#afb6e5"/><stop offset="0.96" stop-color="#bac0ea"/><stop offset="1" stop-color="#c9cff1"/></linearGradient><linearGradient id="linear-gradient-25" x1="1083.85" y1="-183.2" x2="2223.86" y2="2100.77" gradientUnits="userSpaceOnUse"><stop offset="0" stop-color="#cbd0f2"/><stop offset="0.19" stop-color="#d5d9f7"/><stop offset="0.28" stop-color="#dadef9"/><stop offset="0.41" stop-color="#dfe3fc"/><stop offset="0.43" stop-color="#e0e4fd"/><stop offset="0.49" stop-color="#eaedfd"/><stop offset="0.54" stop-color="#f7f8fd"/><stop offset="0.6" stop-color="#e3e6f6"/><stop offset="0.72" stop-color="#b1b8e6"/><stop offset="0.72" stop-color="#afb6e5"/><stop offset="0.91" stop-color="#afb6e5"/><stop offset="0.95" stop-color="#bac0ea"/><stop offset="1" stop-color="#cbd0f2"/></linearGradient><linearGradient id="linear-gradient-26" x1="1083.37" y1="-182.81" x2="2223.32" y2="2101.04" gradientUnits="userSpaceOnUse"><stop offset="0" stop-color="#ccd1f2"/><stop offset="0.19" stop-color="#d6dbf7"/><stop offset="0.28" stop-color="#dbdffa"/><stop offset="0.41" stop-color="#e1e6fd"/><stop offset="0.43" stop-color="#e2e7fe"/><stop offset="0.48" stop-color="#eceffe"/><stop offset="0.54" stop-color="#fbfcfe"/><stop offset="0.59" stop-color="#e7eaf8"/><stop offset="0.71" stop-color="#b5bbe7"/><stop offset="0.72" stop-color="#afb6e5"/><stop offset="0.91" stop-color="#afb6e5"/><stop offset="0.95" stop-color="#bac0ea"/><stop offset="1" stop-color="#ccd1f2"/></linearGradient><linearGradient id="linear-gradient-27" x1="1082.9" y1="-182.41" x2="2222.78" y2="2101.31" gradientTransform="matrix(1, 0, 0, 1, 0, 0)" xlink:href="#linear-gradient"/><linearGradient id="linear-gradient-28" x1="1687.67" y1="1491.86" x2="1944.11" y2="1718.65" gradientUnits="userSpaceOnUse"><stop offset="0.06" stop-color="#f36dd4"/><stop offset="0.2" stop-color="#e96dda"/><stop offset="0.43" stop-color="#cd6de9"/><stop offset="0.55" stop-color="#bb6df3"/><stop offset="1" stop-color="#836df3"/></linearGradient><radialGradient id="radial-gradient" cx="1832.13" cy="1583.35" r="242.57" gradientUnits="userSpaceOnUse"><stop offset="0" stop-color="#711f56"/><stop offset="0.16" stop-color="#6c1e52"/><stop offset="0.36" stop-color="#5c1946"/><stop offset="0.58" stop-color="#431233"/><stop offset="0.82" stop-color="#200918"/><stop offset="1"/></radialGradient><linearGradient id="linear-gradient-29" x1="1816.55" y1="1591.95" x2="1980.82" y2="1737.23" xlink:href="#linear-gradient-28"/><linearGradient id="linear-gradient-30" x1="2193.63" y1="402.58" x2="1848.94" y2="1626.06" gradientUnits="userSpaceOnUse"><stop offset="0.02" stop-color="#ffe585"/><stop offset="0.1" stop-color="#dbee70"/><stop offset="0.18" stop-color="#b4f759"/><stop offset="0.22" stop-color="#90ed6f"/><stop offset="0.33" stop-color="#35d5a5"/><stop offset="0.38" stop-color="#00c7c5"/><stop offset="0.52" stop-color="#2d9be0"/><stop offset="0.64" stop-color="#5277f7"/><stop offset="0.68" stop-color="#5b76f7"/><stop offset="0.73" stop-color="#7374f6"/><stop offset="0.8" stop-color="#9a70f4"/><stop offset="0.85" stop-color="#bb6df3"/><stop offset="1" stop-color="#f36dd4"/></linearGradient><linearGradient id="linear-gradient-31" x1="2408.44" y1="463.09" x2="2063.74" y2="1686.58" xlink:href="#linear-gradient-30"/><linearGradient id="linear-gradient-32" x1="2145.41" y1="388.99" x2="1800.71" y2="1612.48" xlink:href="#linear-gradient-30"/><linearGradient id="linear-gradient-33" x1="1090.42" y1="1295.15" x2="887.34" y2="14.55" gradientUnits="userSpaceOnUse"><stop offset="0.14" stop-color="#00c7c5"/><stop offset="0.52" stop-color="#31eaa0"/><stop offset="0.8" stop-color="#b4f759"/><stop offset="1" stop-color="#ffe585"/></linearGradient><radialGradient id="radial-gradient-2" cx="3798.49" cy="389.2" r="430.24" gradientTransform="matrix(-1, 0, 0, 1, 4932.71, 0)" gradientUnits="userSpaceOnUse"><stop offset="0" stop-color="#fff"/><stop offset="0.07" stop-color="#d8d8d8"/><stop offset="0.16" stop-color="#a6a6a6"/><stop offset="0.26" stop-color="#797979"/><stop offset="0.37" stop-color="#545454"/><stop offset="0.47" stop-color="#353535"/><stop offset="0.59" stop-color="#1e1e1e"/><stop offset="0.7" stop-color="#0d0d0d"/><stop offset="0.84" stop-color="#030303"/><stop offset="1"/></radialGradient><linearGradient id="linear-gradient-34" x1="632.13" y1="413.58" x2="1418.6" y2="413.58" gradientUnits="userSpaceOnUse"><stop offset="0.03" stop-color="#bb6df3"/><stop offset="0.6" stop-color="#5b41e0"/><stop offset="0.71" stop-color="#594be4"/><stop offset="0.91" stop-color="#5567f0"/><stop offset="1" stop-color="#5277f7"/></linearGradient><radialGradient id="radial-gradient-3" cx="1025.37" cy="358.09" r="726.92" xlink:href="#radial-gradient"/><linearGradient id="linear-gradient-35" x1="716.19" y1="412.29" x2="1400.52" y2="875.46" gradientUnits="userSpaceOnUse"><stop offset="0.01" stop-color="#b4f759"/><stop offset="0.05" stop-color="#90ed6f"/><stop offset="0.15" stop-color="#35d5a5"/><stop offset="0.2" stop-color="#00c7c5"/><stop offset="0.41" stop-color="#2d9be0"/><stop offset="0.6" stop-color="#5277f7"/><stop offset="0.66" stop-color="#5b76f7"/><stop offset="0.77" stop-color="#7374f6"/><stop offset="0.9" stop-color="#9a70f4"/><stop offset="1" stop-color="#bb6df3"/></linearGradient><linearGradient id="linear-gradient-36" x1="693.41" y1="374.02" x2="1377.74" y2="837.19" xlink:href="#linear-gradient-35"/><linearGradient id="linear-gradient-37" x1="670.64" y1="335.75" x2="1354.96" y2="798.92" xlink:href="#linear-gradient-35"/><linearGradient id="linear-gradient-38" x1="3549.47" y1="2133.11" x2="3587.63" y2="1268.29" gradientTransform="matrix(0.87, 0.5, 0, 1.15, -2067.03, -2606.39)" gradientUnits="userSpaceOnUse"><stop offset="0.09" stop-color="#e5e9ff"/><stop offset="0.37" stop-color="#ced3f4"/><stop offset="0.51" stop-color="#dde2fb"/><stop offset="0.57" stop-color="#e5e9ff"/><stop offset="0.77" stop-color="#ecefff"/><stop offset="1" stop-color="#fbfbff"/></linearGradient><radialGradient id="radial-gradient-4" cx="3731.22" cy="548.61" r="331.86" xlink:href="#radial-gradient-2"/><linearGradient id="linear-gradient-39" x1="4070.27" y1="1606.6" x2="3687.52" y2="936" gradientTransform="matrix(-1, 0, 0, 1, 4932.71, 0)" xlink:href="#linear-gradient-38"/><radialGradient id="radial-gradient-5" cx="3809.31" cy="1181.1" r="296.96" xlink:href="#radial-gradient-2"/><linearGradient id="linear-gradient-40" x1="2002.54" y1="273.79" x2="2418.78" y2="480.55" xlink:href="#linear-gradient-33"/><linearGradient id="linear-gradient-41" x1="2262.4" y1="353.66" x2="2302.8" y2="435.74" gradientUnits="userSpaceOnUse"><stop offset="0" stop-color="#fff"/><stop offset="1" stop-color="#e6e7e8"/></linearGradient><linearGradient id="linear-gradient-42" x1="1156.26" y1="624.78" x2="2439.09" y2="305.34" xlink:href="#linear-gradient-33"/><linearGradient id="linear-gradient-43" x1="2094.08" y1="446.41" x2="2294.93" y2="418.73" xlink:href="#linear-gradient-33"/><linearGradient id="linear-gradient-44" x1="2285.04" y1="616.51" x2="2290.31" y2="506.01" gradientUnits="userSpaceOnUse"><stop offset="0" stop-color="#fff"/><stop offset="1" stop-color="#afb6e5"/></linearGradient><linearGradient id="linear-gradient-45" x1="2168.96" y1="973.99" x2="2339.42" y2="280.8" xlink:href="#linear-gradient-33"/><linearGradient id="linear-gradient-46" x1="452.18" y1="1717.76" x2="333.41" y2="71.86" xlink:href="#linear-gradient-30"/><linearGradient id="linear-gradient-47" x1="301.36" y1="1057.91" x2="621.44" y2="1948.06" gradientUnits="userSpaceOnUse"><stop offset="0.01" stop-color="#2be9a3"/><stop offset="0.16" stop-color="#4fed90"/><stop offset="0.5" stop-color="#aaf65f"/><stop offset="0.54" stop-color="#b4f759"/><stop offset="0.63" stop-color="#bdf55e"/><stop offset="0.79" stop-color="#d5ef6c"/><stop offset="0.99" stop-color="#fce683"/><stop offset="1" stop-color="#ffe585"/></linearGradient><linearGradient id="linear-gradient-48" x1="169.5" y1="5.74" x2="343.74" y2="664.83" xlink:href="#linear-gradient-28"/><linearGradient id="linear-gradient-49" x1="220.89" y1="262.15" x2="328.21" y2="446.49" xlink:href="#linear-gradient-28"/><linearGradient id="linear-gradient-50" x1="235.06" y1="298.89" x2="348.7" y2="463.03" xlink:href="#linear-gradient-28"/><linearGradient id="linear-gradient-51" x1="169.5" y1="320.14" x2="343.74" y2="979.23" gradientUnits="userSpaceOnUse"><stop offset="0" stop-color="#836df3"/><stop offset="0.55" stop-color="#5277f7"/><stop offset="1" stop-color="#6cf"/></linearGradient><linearGradient id="linear-gradient-52" x1="203.76" y1="575.69" x2="343.91" y2="801.07" xlink:href="#linear-gradient-51"/><linearGradient id="linear-gradient-53" x1="210.73" y1="579.6" x2="305.43" y2="733.64" xlink:href="#linear-gradient-51"/><linearGradient id="linear-gradient-54" x1="651.04" y1="1209.12" x2="825.28" y2="1868.21" gradientUnits="userSpaceOnUse"><stop offset="0" stop-color="#b4f759"/><stop offset="0.21" stop-color="#d7ef6e"/><stop offset="0.42" stop-color="#f4e87f"/><stop offset="0.55" stop-color="#ffe585"/><stop offset="1" stop-color="#ff9e6e"/></linearGradient><linearGradient id="linear-gradient-55" x1="676.54" y1="1440.42" x2="811.55" y2="1677.97" xlink:href="#linear-gradient-54"/><linearGradient id="linear-gradient-56" x1="704.72" y1="1464.69" x2="805.1" y2="1626.62" xlink:href="#linear-gradient-54"/><linearGradient id="linear-gradient-57" x1="139.9" y1="693.31" x2="459.97" y2="1583.46" gradientUnits="userSpaceOnUse"><stop offset="0.01" stop-color="#6cf"/><stop offset="0.21" stop-color="#42caeb"/><stop offset="0.54" stop-color="#00c7c5"/><stop offset="0.68" stop-color="#09cebe"/><stop offset="0.92" stop-color="#21e1ab"/><stop offset="1" stop-color="#2be9a3"/></linearGradient><linearGradient id="linear-gradient-58" x1="199.79" y1="1031.74" x2="325.54" y2="1031.74" xlink:href="#linear-gradient-57"/><linearGradient id="linear-gradient-59" x1="261.09" y1="1056.26" x2="325.53" y2="1056.26" xlink:href="#linear-gradient-57"/><linearGradient id="linear-gradient-60" x1="344.32" y1="1295.25" x2="482.25" y2="1469.16" xlink:href="#linear-gradient-47"/><linearGradient id="linear-gradient-61" x1="382.42" y1="1337.72" x2="474.77" y2="1462.46" xlink:href="#linear-gradient-47"/><linearGradient id="linear-gradient-62" x1="384.1" y1="1336.48" x2="476.45" y2="1461.21" xlink:href="#linear-gradient-47"/><linearGradient id="linear-gradient-63" x1="385.72" y1="1335.14" x2="478.07" y2="1459.87" xlink:href="#linear-gradient-47"/></defs><g class="cls-1"><g id="Capa_2" data-name="Capa 2"><g id="Layer_1" data-name="Layer 1"><g class="cls-2"><path class="cls-3" d="M1391.81,2236.75c-29,0-55.27-6.34-76-18.33l-528-306.64c-27.73-16-43.63-41.34-43.63-69.49,0-30.86,19.15-59.62,52.54-78.89l463.35-178.24c26.22-15.13,59-23.47,92.33-23.47,29,0,55.27,6.34,76,18.33l354.84,207.89c27.72,16,43.62,41.34,43.62,69.49,0,30.86-19.15,59.61-52.53,78.89l-290.22,277C1457.92,2228.41,1425.13,2236.75,1391.81,2236.75Z"/><path class="cls-4" d="M798.72,1763.77l463.35-178.24c26.11-15.07,59-23.16,91.91-22.84a174,174,0,0,1,40.1,5.14,148.73,148.73,0,0,1,35.15,14.21l342.36,200.58c.33.19,10.28,6.05,10.52,6.27,27.12,16.26,39.47,41.65,38,69.07-1.51,28-22.64,59.81-53,77.34l-285,274.49c-25.61,14.78-57.67,22.89-90.12,22.93-28.24,0-54-6.1-74.22-17.79l-528-309.76c-26.64-15.38-41.73-39.54-41.59-66.3C748.35,1809.62,766.69,1782.26,798.72,1763.77Z"/><path class="cls-5" d="M800.73,1764.14l463.36-178.24c26-15,58.94-22.86,91.48-22.2a171,171,0,0,1,39.73,5.76c10.6,2.78,26.11,9.62,34.74,14.6l340.51,199.49c.65.38,9.92,5.89,10.4,6.32,26.51,16.51,35.34,41.71,32.36,68.65-2.77,25.1-26.13,60-53.44,75.78l-279.76,272c-25,14.42-56.31,22.32-87.89,22.39-27.52,0-52.71-5.87-72.42-17.25l-528-312.88c-25.55-14.75-39.82-37.75-39.55-63.12C752.53,1807.82,770.05,1781.85,800.73,1764.14Z"/><path class="cls-6" d="M802.75,1764.51l463.35-178.25c25.88-14.93,58.91-22.54,91.05-21.56a169.06,169.06,0,0,1,39.37,6.38c9.39,2.59,26.66,10.57,34.33,15l338.65,198.4c1,.56,9.56,5.71,10.3,6.36,25.9,16.76,31.22,41.51,26.72,68.24-3.73,22.13-29.63,60.19-53.9,74.21L1478.1,2202.81c-24.38,14.07-55,21.75-85.67,21.85-26.8.08-51.43-5.63-70.61-16.71l-528-316c-24.46-14.12-37.93-36-37.53-59.93C756.71,1806,773.42,1781.43,802.75,1764.51Z"/><path class="cls-7" d="M804.76,1764.87l463.36-178.24c25.76-14.87,58.87-22.24,90.62-20.92,14,.61,27.08,3.54,39,7,8.18,2.37,27.2,11.53,33.92,15.41l336.79,197.31c1.31.76,9.21,5.54,10.19,6.41,25.3,17,32.93,43.07,21.09,67.82,0,19.63-33.12,60.39-54.36,72.66l-269.29,267c-23.76,13.72-53.62,21.18-83.44,21.31-26.08.11-50.16-5.4-68.81-16.17l-528-319.12c-23.37-13.5-36-34.15-35.49-56.74C760.89,1804.21,776.79,1781,804.76,1764.87Z"/><path class="cls-8" d="M806.78,1765.24,1270.13,1587c25.65-14.81,58.84-21.93,90.2-20.29,14,.77,26.87,4,38.62,7.62,7,2.12,27.76,12.47,33.52,15.8l334.93,196.23c1.64.94,8.86,5.36,10.08,6.45,24.69,17.25,30.26,43.5,15.46,67.4,0,16.83-36.61,60.59-54.82,71.1l-264,264.52c-23.15,13.36-52.28,20.6-81.23,20.77-25.35.14-48.87-5.16-67-15.63l-528-322.24c-22.29-12.87-34.13-32.35-33.47-53.55C765.08,1802.41,780.15,1780.61,806.78,1765.24Z"/><path class="cls-9" d="M808.79,1765.61l463.36-178.24c25.53-14.74,58.81-21.63,89.77-19.66,13.91.93,26.66,4.55,38.25,8.24,5.8,1.85,28.31,13.43,33.11,16.2l333.07,195.14a111.43,111.43,0,0,1,10,6.5c24.09,17.5,27.59,43.93,9.83,67,0,14-40.1,60.78-55.28,69.55l-258.82,262c-22.53,13-50.93,20-79,20.23-24.63.17-47.6-4.93-65.19-15.09l-528-325.36c-21.2-12.24-32.23-30.56-31.43-50.36C769.26,1800.6,783.52,1780.2,808.79,1765.61Z"/><path class="cls-10" d="M810.81,1766l463.35-178.24c25.42-14.68,58.78-21.32,89.34-19,13.87,1.08,26.45,5,37.89,8.85,4.62,1.54,28.86,14.39,32.7,16.6l331.21,194a96,96,0,0,1,9.87,6.55c23.47,17.75,24.91,44.36,4.19,66.56,0,11.22-43.6,61-55.74,68L1470,2188.85c-21.92,12.65-49.58,19.46-76.78,19.68-23.91.21-46.32-4.68-63.39-14.54l-528-328.48c-20.11-11.61-30.33-28.76-29.41-47.17C773.44,1798.8,786.88,1779.78,810.81,1766Z"/><path class="cls-11" d="M812.82,1766.34l463.36-178.24c25.31-14.61,58.74-21,88.91-18.38,13.81,1.24,26.22,5.53,37.52,9.48,3.45,1.2,29.41,15.33,32.29,17l329.35,193a81.41,81.41,0,0,1,9.76,6.59c22.87,18,22.24,44.79-1.44,66.14,0,8.42-47.09,61.18-56.19,66.43l-248.36,257c-21.3,12.3-48.23,18.88-74.55,19.14-23.19.24-45-4.45-61.58-14l-528-331.61c-19-11-28.43-27-27.37-44C777.62,1797,790.25,1779.37,812.82,1766.34Z"/><path class="cls-12" d="M814.83,1766.71l463.36-178.24c25.2-14.54,58.71-20.7,88.49-17.74,13.75,1.39,26,6,37.15,10.09,2.29.83,30,16.29,31.87,17.4l327.51,191.87a73,73,0,0,1,9.64,6.63c22.26,18.26,19.57,45.24-7.07,65.73,0,5.62-50.58,61.37-56.65,64.88L1466,2181.87c-20.69,12-46.89,18.31-72.34,18.6-22.46.26-43.76-4.21-59.77-13.45l-528-334.73c-17.94-10.36-26.53-25.17-25.34-40.79C781.8,1795.19,793.62,1779,814.83,1766.71Z"/><path class="cls-13" d="M816.85,1767.08l463.36-178.24c25.08-14.48,58.67-20.4,88.06-17.11,13.69,1.55,25.74,6.51,36.78,10.71,1.14.44,30.5,17.24,31.46,17.8L1762.16,1791a64,64,0,0,1,9.53,6.68c21.66,18.51,16.9,45.67-12.7,65.32,0,2.8-54.08,61.56-57.11,63.31L1464,2178.38c-20.07,11.59-45.54,17.74-70.11,18.06-21.74.29-42.49-4-58-12.91l-528-337.85c-16.85-9.73-24.63-23.37-23.31-37.61C786,1793.39,797,1778.55,816.85,1767.08Z"/><path d="M1337.93,2180l-528-341c-31.8-18.36-27.81-50.43,8.9-71.62l463.36-178.24c36.71-21.2,92.25-23.5,124-5.14L1761.11,1792c31.79,18.36,27.81,50.42-8.91,71.62L1462,2174.9C1425.27,2196.09,1369.73,2198.39,1337.93,2180Z"/></g><path class="cls-14" d="M1337.93,2179.3,810,1872.66c-14.17-8.18-21.24-19.08-21.46-30.53,0-.37,0-73.86,0-74.22.25-13.92,10.53,10.25,30.36-1.2l463.36-178.24c36.71-21.2,92.25-23.5,124-5.14l354.84,207.89c10.61,6.13,18.31-19.88,21.06-11.61.92,2.75.34,73.58.4,76.44.3,14.25-10,29.36-30.37,41.12l-290.22,277C1425.27,2195.35,1369.73,2197.66,1337.93,2179.3Z"/><path class="cls-15" d="M1337.93,2105.82,810,1799.18c-31.8-18.36-27.81-50.42,8.9-71.62l463.36-178.24c36.71-21.2,92.25-23.5,124-5.14l354.84,207.89c31.79,18.36,27.81,50.42-8.91,71.62l-290.22,277C1425.27,2121.87,1369.73,2124.17,1337.93,2105.82Z"/><path class="cls-16" d="M1761.11,1752.07l-354.84-207.89c-31.8-18.36-87.34-16-124,5.14l-233.44,89.8a57.29,57.29,0,0,0,7.25,5l528,306.64a89.28,89.28,0,0,0,25.25,9.36l143-136.43C1788.92,1802.49,1792.91,1770.43,1761.11,1752.07Z"/><path class="cls-17" d="M1752.2,1817,1462,2094c-36.71,21.19-92.25,23.5-124,5.14L810,1792.53c-13.19-7.61-20.13-17.6-21.23-28.18-1.65,13,5.29,25.63,21.23,34.83l528,309c31.8,18.36,87.34,16.06,124-5.14l290.22-279.36c21.49-12.4,31.67-28.52,30.13-43.44C1780.69,1793.19,1770.52,1806.47,1752.2,1817Z"/><path class="cls-18" d="M2027.73,2107.52,731,1358.27c-66.29-38.28-120-141-120-229.35V137.23c0-88.4,53.74-129,120-90.75L2027.73,795.73c66.29,38.27,120,141,120,229.35v991.69C2147.76,2105.16,2094,2145.79,2027.73,2107.52Z"/><path class="cls-19" d="M2043.19,2038.48,764.77,1299.9c-53.34-33.91-86.34-101.66-86.34-171V130.71a21.28,21.28,0,0,1,32-18.33l3.76,2.19L1994,854.1c63.51,36.61,86.35,101.66,86.35,171v995.07a23,23,0,0,1-34.36,19.93Z"/><path class="cls-20" d="M1994,854.1,714.23,114.57l-3.76-2.19a21.28,21.28,0,0,0-32,18.33v998.21c0,69.32,33,137.07,86.34,171l1278.42,738.58,2.8,1.6a23,23,0,0,0,34.36-19.93V1025.08C2080.35,955.75,2057.51,890.71,1994,854.1Zm72.86,1166.05a9.54,9.54,0,0,1-9.53,9.5,9.3,9.3,0,0,1-4.66-1.28L771.52,1288.22c-48.17-30.63-79.61-93.27-79.61-159.3V130.71a7.84,7.84,0,0,1,7.84-7.8,7.7,7.7,0,0,1,3.91,1.1L1987.25,865.77c65.81,37.93,79.61,107.57,79.61,159.31Z"/><path class="cls-21" d="M2083,763.65,786.29,14.41C760.06-.74,735.8-3.53,716.05,4.1c-2.51,1-57.2,32.75-59.56,34.06l-.18.1c20.51-10,46.46-8.11,74.73,8.22L2027.73,795.73c66.29,38.27,120,141,120,229.35v991.69c0,55.17-20.93,91.72-52.78,102.11,2.59.14,5.83-.87,10.51-3.58,1.52-.88,59.07-35.38,60.52-36.39,22.8-16,37-48.78,37-94.21V993C2203,904.61,2149.27,801.93,2083,763.65Z"/><path class="cls-22" d="M2082,764.32,785.28,15.07C759.05-.07,734.79-2.86,715,4.76c-2.51,1-56.19,32.09-58.55,33.4l-.18.1c20.51-10,46.46-8.11,74.73,8.22L2027.73,795.73c66.29,38.27,120,141,120,229.35v991.69c0,55.17-20.93,91.72-52.78,102.11,2.59.14,5.83-.87,10.51-3.58,1.52-.88,58.06-34.71,59.51-35.72,22.8-16,37-48.78,37-94.22V993.67C2202,905.28,2148.26,802.59,2082,764.32Z"/><path class="cls-23" d="M2081,765,784.27,15.74C758,.6,733.78-2.2,714,5.43c-2.51,1-55.18,31.42-57.54,32.73l-.18.1c20.51-10,46.46-8.11,74.73,8.22L2027.73,795.73c66.29,38.27,120,141,120,229.35v991.69c0,55.17-20.93,91.72-52.78,102.11,2.59.14,5.83-.87,10.51-3.58,1.52-.88,57.05-34,58.5-35.06,22.8-16,37-48.78,37-94.21V994.33C2201,905.94,2147.25,803.26,2081,765Z"/><path class="cls-24" d="M2079.94,765.65,783.26,16.41C757,1.26,732.77-1.53,713,6.1c-2.51,1-54.17,30.75-56.53,32.06l-.18.1c20.51-10,46.46-8.11,74.73,8.22L2027.73,795.73c66.29,38.27,120,141,120,229.35v991.69c0,55.17-20.93,91.72-52.78,102.11,2.59.14,5.83-.87,10.51-3.58,1.52-.88,56-33.38,57.49-34.39,22.8-16,37-48.78,37-94.21V995C2200,906.61,2146.24,803.93,2079.94,765.65Z"/><path class="cls-25" d="M2078.93,766.32,782.25,17.07C756,1.93,731.76-.86,712,6.76c-2.51,1-53.16,30.09-55.52,31.4l-.18.1c20.51-10,46.46-8.11,74.73,8.22L2027.73,795.73c66.29,38.27,120,141,120,229.35v991.69c0,55.17-20.93,91.72-52.78,102.11,2.59.14,5.83-.87,10.51-3.58,1.52-.88,55-32.71,56.48-33.72,22.8-16,37-48.78,37-94.22V995.67C2199,907.28,2145.23,804.6,2078.93,766.32Z"/><path class="cls-26" d="M2077.92,767,781.24,17.74C755,2.6,730.75-.2,711,7.43c-2.51,1-52.15,29.42-54.51,30.73l-.18.1c20.51-10,46.46-8.11,74.73,8.22L2027.73,795.73c66.29,38.27,120,141,120,229.35v991.69c0,55.17-20.93,91.72-52.78,102.11,2.59.14,5.83-.87,10.51-3.58,1.52-.88,54-32,55.47-33.06,22.8-16,37-48.78,37-94.21V996.34C2198,907.94,2144.21,805.26,2077.92,767Z"/><path class="cls-27" d="M2076.91,767.65,780.23,18.41C754,3.26,729.74.47,710,8.1c-2.51,1-51.14,28.75-53.5,30.06l-.18.1c20.51-10,46.46-8.11,74.73,8.22L2027.73,795.73c66.29,38.27,120,141,120,229.35v991.69c0,55.17-20.93,91.72-52.78,102.11,2.59.14,5.83-.87,10.51-3.58,1.52-.88,53-31.37,54.46-32.39,22.8-16,37-48.78,37-94.21V997C2197,908.61,2143.2,805.93,2076.91,767.65Z"/><path class="cls-28" d="M2075.9,768.32,779.22,19.07C753,3.93,728.73,1.14,709,8.76c-2.51,1-50.13,28.09-52.49,29.4l-.18.1c20.51-10,46.46-8.11,74.73,8.22L2027.73,795.73c66.29,38.27,120,141,120,229.35v991.69c0,55.17-20.93,91.72-52.78,102.11,2.59.14,5.83-.87,10.51-3.58,1.52-.88,52-30.71,53.45-31.72,22.8-16,37-48.78,37-94.22V997.67C2195.93,909.28,2142.19,806.6,2075.9,768.32Z"/><path class="cls-29" d="M2074.89,769,778.21,19.74C752,4.6,727.72,1.8,708,9.43c-2.51,1-49.12,27.42-51.48,28.73l-.18.1c20.51-10,46.46-8.11,74.73,8.22L2027.73,795.73c66.29,38.27,120,141,120,229.35v991.69c0,55.17-20.93,91.72-52.78,102.11,2.59.14,5.83-.87,10.51-3.58,1.52-.88,51-30,52.43-31.06,22.81-16,37-48.78,37-94.21V998.34C2194.92,909.94,2141.18,807.26,2074.89,769Z"/><path class="cls-30" d="M2073.88,769.65,777.19,20.41C751,5.26,726.7,2.47,707,10.1c-2.52,1-48.11,26.75-50.47,28.06l-.18.1c20.51-10,46.46-8.11,74.73,8.22L2027.73,795.73c66.29,38.27,120,141,120,229.35v991.69c0,55.17-20.93,91.72-52.78,102.11,2.59.14,5.83-.87,10.51-3.58,1.52-.88,50-29.37,51.42-30.39,22.81-16,37-48.78,37-94.21V999C2193.91,910.61,2140.17,807.93,2073.88,769.65Z"/><path class="cls-31" d="M2072.87,770.32,776.18,21.07C750,5.93,725.69,3.14,706,10.77c-2.52,1-47.1,26.08-49.46,27.39l-.18.1c20.51-10,46.46-8.11,74.73,8.22L2027.73,795.73c66.29,38.27,120,141,120,229.35v991.69c0,55.17-20.93,91.72-52.78,102.11,2.59.14,5.83-.87,10.51-3.58,1.52-.88,49-28.71,50.41-29.72,22.8-16,37-48.78,37-94.22V999.67C2192.9,911.28,2139.16,808.6,2072.87,770.32Z"/><path class="cls-32" d="M2071.86,771,775.17,21.74C748.94,6.6,724.68,3.8,704.93,11.43c-2.51,1-46.08,25.42-48.44,26.73l-.18.1c20.51-10,46.46-8.11,74.73,8.22L2027.73,795.73c66.29,38.27,120,141,120,229.35v991.69c0,55.17-20.93,91.72-52.78,102.11,2.59.14,5.83-.87,10.51-3.58,1.52-.88,48-28,49.4-29.06,22.8-16,37-48.78,37-94.21V1000.34C2191.89,911.94,2138.15,809.26,2071.86,771Z"/><path class="cls-33" d="M2070.85,771.65,774.16,22.41C747.93,7.27,723.67,4.47,703.92,12.1c-2.51,1-45.07,24.75-47.43,26.06l-.18.1c20.51-10,46.46-8.11,74.73,8.22L2027.73,795.73c66.29,38.27,120,141,120,229.35v991.69c0,55.17-20.93,91.72-52.78,102.11,2.59.14,5.83-.87,10.51-3.58,1.52-.88,46.94-27.37,48.39-28.39,22.8-16,37-48.78,37-94.21V1001C2190.88,912.61,2137.14,809.93,2070.85,771.65Z"/><path class="cls-34" d="M2069.84,772.32,773.15,23.08C746.92,7.93,722.66,5.14,702.91,12.77c-2.51,1-44.06,24.08-46.42,25.39l-.18.1c20.51-10,46.46-8.11,74.73,8.22L2027.73,795.73c66.29,38.27,120,141,120,229.35v991.69c0,55.17-20.93,91.72-52.78,102.11,2.59.14,5.83-.87,10.51-3.58,1.52-.88,45.93-26.71,47.38-27.72,22.8-16,37-48.78,37-94.22V1001.67C2189.87,913.28,2136.13,810.6,2069.84,772.32Z"/><path class="cls-35" d="M2068.82,773,772.14,23.74C745.91,8.6,721.65,5.81,701.9,13.43c-2.51,1-43,23.42-45.41,24.73l-.18.1c20.51-10,46.46-8.11,74.73,8.22L2027.73,795.73c66.29,38.27,120,141,120,229.35v991.69c0,55.17-20.93,91.72-52.78,102.11,2.59.14,5.83-.87,10.51-3.58,1.52-.88,44.92-26,46.37-27.06,22.8-16,37-48.78,37-94.21V1002.34C2188.86,913.94,2135.12,811.26,2068.82,773Z"/><path class="cls-36" d="M2067.81,773.66,771.13,24.41C744.9,9.27,720.64,6.47,700.89,14.1c-2.51,1-42,22.75-44.4,24.06l-.18.1c20.51-10,46.46-8.11,74.73,8.22L2027.73,795.73c66.29,38.27,120,141,120,229.35v991.69c0,55.17-20.93,91.72-52.78,102.11,2.59.14,5.83-.87,10.51-3.58,1.52-.88,43.91-25.37,45.36-26.39,22.8-16,37-48.78,37-94.21V1003C2187.85,914.61,2134.11,811.93,2067.81,773.66Z"/><path class="cls-37" d="M2066.8,774.32,770.12,25.08C743.89,9.93,719.63,7.14,699.88,14.77c-2.51,1-41,22.08-43.39,23.39l-.18.1c20.51-10,46.46-8.11,74.73,8.22L2027.73,795.73c66.29,38.27,120,141,120,229.35v991.69c0,55.17-20.93,91.72-52.78,102.11,2.59.14,5.83-.87,10.51-3.58,1.52-.88,42.9-24.71,44.35-25.72,22.8-16,37-48.78,37-94.21v-991.7C2186.84,915.28,2133.09,812.6,2066.8,774.32Z"/><path class="cls-38" d="M2065.79,775,769.11,25.74C742.88,10.6,718.62,7.81,698.87,15.43c-2.51,1-40,21.42-42.38,22.73l-.18.1c20.51-10,46.46-8.11,74.73,8.22L2027.73,795.73c66.29,38.27,120,141,120,229.35v991.69c0,55.17-20.93,91.72-52.78,102.11,2.59.14,5.83-.87,10.51-3.58,1.52-.88,41.89-24,43.34-25.06,22.8-16,37-48.78,37-94.21V1004.34C2185.83,916,2132.08,813.26,2065.79,775Z"/><path class="cls-39" d="M2064.78,775.66,768.1,26.41C741.87,11.27,717.61,8.47,697.86,16.1c-2.51,1-39,20.75-41.37,22.06l-.18.1c20.51-10,46.46-8.11,74.73,8.22L2027.73,795.73c66.29,38.27,120,141,120,229.35v991.69c0,55.17-20.93,91.72-52.78,102.11,2.59.14,5.83-.87,10.51-3.58,1.52-.88,40.88-23.37,42.33-24.39,22.8-16,37-48.78,37-94.21V1005C2184.81,916.61,2131.07,813.93,2064.78,775.66Z"/><path class="cls-40" d="M2063.77,776.32,767.09,27.08c-26.23-15.15-50.5-17.94-70.24-10.31-2.51,1-38,20.08-40.36,21.39l-.18.1c20.51-10,46.46-8.11,74.73,8.22L2027.73,795.73c66.29,38.27,120,141,120,229.35v991.69c0,55.17-20.93,91.72-52.78,102.11,2.59.14,5.83-.87,10.51-3.58,1.52-.88,39.87-22.71,41.31-23.72,22.81-16,37-48.78,37-94.21v-991.7C2183.8,917.28,2130.06,814.6,2063.77,776.32Z"/><path class="cls-41" d="M2062.76,777,766.07,27.74C739.85,12.6,715.58,9.81,695.84,17.43c-2.52,1-37,19.42-39.35,20.73l-.18.1c20.51-10,46.46-8.11,74.73,8.22L2027.73,795.73c66.29,38.27,120,141,120,229.35v991.69c0,55.17-20.93,91.72-52.78,102.11,2.59.14,5.83-.87,10.51-3.58,1.52-.88,38.86-22,40.3-23.05,22.81-16,37-48.79,37-94.22V1006.34C2182.79,918,2129.05,815.26,2062.76,777Z"/><path class="cls-42" d="M2061.75,777.66,765.06,28.41c-26.22-15.14-50.49-17.94-70.23-10.31-2.52,1-36,18.75-38.34,20.06l-.18.1c20.51-10,46.46-8.11,74.73,8.22L2027.73,795.73c66.29,38.27,120,141,120,229.35v991.69c0,55.17-20.93,91.72-52.78,102.11,2.59.14,5.83-.87,10.51-3.58,1.52-.88,37.84-21.37,39.29-22.39,22.8-16,37-48.78,37-94.21V1007C2181.78,918.61,2128,815.93,2061.75,777.66Z"/><path class="cls-17" d="M2033.49,792.85,736.8,43.6c-27.18-15.7-52.17-17.93-72.29-9.24,17.17-2.72,36.89,1.43,57.89,13.56L2019.09,797.17c66.29,38.27,120,141,120,229.35v991.69c0,52.15-18.78,87.48-47.74,100,37-5.88,62.14-43.92,62.14-104.31V1022.2C2153.52,933.81,2099.78,831.12,2033.49,792.85Z"/><g class="cls-43"><path class="cls-44" d="M1780.41,1498.43c-23.72-13.69-43-2.73-43,24.49v62.86c0,27.22,19.23,60.39,43,74.09L1936.84,1751c23.72,13.7,52.46,1.23,52.46-26v-62.86c0-27.22-28.74-58.89-52.46-72.58Z"/><path class="cls-45" d="M1779.13,1500.35c-23.6-13.63-42.74-2.72-42.74,24.37v59.84c0,27.09,19.14,60.09,42.74,73.72l155,90.31c23.61,13.63,51.39,1.35,51.39-25.73V1663c0-27.09-27.78-58.73-51.39-72.36Z"/><path class="cls-46" d="M1777.86,1502.26c-23.49-13.56-42.53-2.7-42.53,24.25v56.82c0,27,19,59.81,42.53,73.37l153.61,89.49c23.49,13.57,50.31,1.48,50.31-25.48v-56.82c0-27-26.82-58.57-50.31-72.13Z"/><path class="cls-47" d="M1776.58,1504.18c-23.37-13.5-42.32-2.7-42.32,24.13v53.8c0,26.82,19,59.51,42.32,73l152.2,88.69c23.38,13.49,49.24,1.59,49.24-25.23v-53.8c0-26.83-25.86-58.42-49.24-71.91Z"/><path class="cls-48" d="M1775.31,1506.09c-23.26-13.43-42.12-2.68-42.12,24v50.79c0,26.69,18.86,59.21,42.12,72.64l150.79,87.87c23.26,13.43,48.16,1.72,48.16-25v-50.79c0-26.69-24.9-58.25-48.16-71.68Z"/><path class="cls-49" d="M1774,1508c-23.14-13.36-41.9-2.66-41.9,23.9v47.77c0,26.55,18.76,58.91,41.9,72.28l149.38,87c23.15,13.36,47.09,1.84,47.09-24.72v-47.76c0-26.56-23.94-58.1-47.09-71.46Z"/><path class="cls-50" d="M1772.76,1509.92c-23-13.3-41.7-2.65-41.7,23.77v44.75c0,26.43,18.67,58.63,41.7,71.92l148,86.24c23,13.29,46,2,46-24.46v-44.75c0-26.42-23-57.94-46-71.23Z"/><path class="cls-51" d="M1771.49,1511.83c-22.92-13.23-41.49-2.64-41.49,23.66v41.73c0,26.29,18.57,58.33,41.49,71.56L1918,1734.2c22.92,13.23,45,2.09,45-24.2v-41.73c0-26.29-22-57.79-45-71Z"/><path class="cls-52" d="M1770.21,1513.75c-22.8-13.16-41.28-2.63-41.28,23.53V1576c0,26.15,18.48,58,41.28,71.19l145.15,84.61c22.79,13.16,43.87,2.22,43.87-23.94v-38.72c0-26.16-21.08-57.62-43.87-70.78Z"/><path class="cls-53" d="M1768.94,1515.66c-22.69-13.09-41.07-2.61-41.07,23.42v35.69c0,26,18.38,57.74,41.07,70.84l143.73,83.79c22.68,13.1,42.8,2.34,42.8-23.69V1670c0-26-20.12-57.47-42.8-70.56Z"/><path class="cls-54" d="M1767.66,1517.58c-22.56-13-40.86-2.6-40.86,23.29v32.68c0,25.89,18.3,57.45,40.86,70.47L1910,1727c22.56,13,41.72,2.47,41.72-23.43v-32.68c0-25.89-19.16-57.31-41.72-70.33Z"/><path class="cls-55" d="M1766.39,1519.49c-22.45-13-40.65-2.59-40.65,23.18v29.66c0,25.76,18.2,57.15,40.65,70.11l140.91,82.16c22.45,13,40.65,2.59,40.65-23.17v-29.66c0-25.76-18.2-57.15-40.65-70.11Z"/></g><path class="cls-56" d="M1934.53,1749.06l-180.08-104.75c-19.41-11.2-35.28-41.54-35.28-67.41v-38.19c0-25.87,15.87-37.88,35.28-26.67l180.08,104.75c19.41,11.2,35.28,41.54,35.28,67.41v38.19C1969.81,1748.26,1953.94,1760.26,1934.53,1749.06Z"/><path class="cls-57" d="M1934.53,1616.79,1754.45,1512c-19.41-11.21-35.28.8-35.28,26.67v4c0-25.87,15.87-37.88,35.28-26.67l180.08,104.75c19.41,11.2,35.28,41.54,35.28,67.41v-4C1969.81,1658.33,1953.94,1628,1934.53,1616.79Z"/><path class="cls-58" d="M1934.53,1616.79,1842.12,1563v132.27l92.41,53.75c19.41,11.2,35.28-.8,35.28-26.67V1684.2C1969.81,1658.33,1953.94,1628,1934.53,1616.79Z"/><path class="cls-59" d="M1850.84,1644.54a5.64,5.64,0,0,1-3.38-1.12l-9.15-6.83a5.69,5.69,0,0,1,6.84-9.09l9.09,6.79a5.68,5.68,0,0,1-3.4,10.25Z"/><path class="cls-60" d="M2323.89,1844.77a5.68,5.68,0,0,1,0-11.36c7.71-.07,15.13-.48,22-1.22a5.64,5.64,0,0,1,6.26,5,5.7,5.7,0,0,1-5.05,6.26c-7.28.78-15.07,1.21-23.16,1.28Zm-22.62-.69h-.39c-7.32-.48-15-1.24-22.88-2.24a5.69,5.69,0,0,1,1.44-11.28c7.63,1,15.1,1.71,22.2,2.18a5.68,5.68,0,0,1-.37,11.35Zm67.52-4.4a5.68,5.68,0,0,1-1.35-11.2,111.63,111.63,0,0,0,20.33-7,5.68,5.68,0,1,1,4.79,10.3,123.15,123.15,0,0,1-22.4,7.74A5.89,5.89,0,0,1,2368.79,1839.68Zm-112.45-1.26a5.83,5.83,0,0,1-1-.09q-11-2-22.43-4.52a5.69,5.69,0,1,1,2.47-11.1q11.22,2.51,22,4.43a5.68,5.68,0,0,1-1,11.28Zm-44.2-9.84a5.55,5.55,0,0,1-1.45-.19q-10.83-2.85-22-6.18a5.7,5.7,0,0,1-3.82-7.08,5.63,5.63,0,0,1,7.07-3.81q11,3.29,21.64,6.08a5.69,5.69,0,0,1-1.45,11.18Zm197-8.41a5.68,5.68,0,0,1-3.73-10,56.64,56.64,0,0,0,12.8-15.94,5.68,5.68,0,0,1,10,5.37,68.07,68.07,0,0,1-15.35,19.13A5.67,5.67,0,0,1,2409.16,1820.17Zm-240.44-4.55a5.54,5.54,0,0,1-1.79-.29q-10.65-3.52-21.55-7.48a5.69,5.69,0,0,1,3.88-10.69q10.74,3.91,21.25,7.39a5.68,5.68,0,0,1-1.79,11.07Zm-42.6-15.44a5.62,5.62,0,0,1-2.07-.39q-10.46-4.1-21.11-8.57a5.69,5.69,0,0,1,4.41-10.48q10.52,4.42,20.85,8.47a5.68,5.68,0,0,1-2.08,11Zm-41.77-17.53a5.59,5.59,0,0,1-2.31-.5q-10.26-4.58-20.69-9.5a5.68,5.68,0,1,1,4.85-10.27q10.31,4.86,20.47,9.4a5.68,5.68,0,0,1-2.32,10.87Zm345.88-1.41a6.36,6.36,0,0,1-.86-.07,5.68,5.68,0,0,1-4.77-6.47,77.54,77.54,0,0,0,.84-11.61c0-3.11-.17-6.31-.49-9.54a5.68,5.68,0,1,1,11.3-1.15,105,105,0,0,1,.55,10.69,89.56,89.56,0,0,1-1,13.31A5.69,5.69,0,0,1,2430.23,1781.24Zm-386.85-17.93a5.68,5.68,0,0,1-2.52-.59q-10.08-5-20.27-10.35a5.68,5.68,0,0,1,5.25-10.07q10.1,5.27,20.08,10.24a5.68,5.68,0,0,1-2.54,10.77Zm-40.15-21a5.66,5.66,0,0,1-2.71-.69q-9.9-5.42-19.87-11.11a5.68,5.68,0,0,1,5.64-9.87q9.89,5.65,19.67,11a5.68,5.68,0,0,1-2.73,10.67Zm423.1-5.9a5.7,5.7,0,0,1-5.48-4.17,188.93,188.93,0,0,0-7.14-20.79,5.69,5.69,0,0,1,10.54-4.27,200.21,200.21,0,0,1,7.55,22,5.69,5.69,0,0,1-5.47,7.19Zm-462.44-16.56a5.69,5.69,0,0,1-2.9-.8q-9.71-5.76-19.45-11.8a5.68,5.68,0,0,1,6-9.67q9.66,6,19.28,11.71a5.68,5.68,0,0,1-2.91,10.56ZM1925.37,1696a5.61,5.61,0,0,1-3.07-.9q-9.49-6.11-19-12.46a5.68,5.68,0,0,1,6.3-9.46q9.45,6.3,18.88,12.36a5.68,5.68,0,0,1-3.09,10.46Zm484.2-1.59a5.68,5.68,0,0,1-5.07-3.11c-3.23-6.37-6.85-12.93-10.75-19.5a5.69,5.69,0,1,1,9.78-5.8c4,6.79,7.76,13.57,11.1,20.17a5.67,5.67,0,0,1-2.5,7.63A5.73,5.73,0,0,1,2409.57,1694.45Zm-521.88-23.54a5.7,5.7,0,0,1-3.23-1q-9.3-6.44-18.6-13.1a5.68,5.68,0,1,1,6.61-9.23q9.22,6.6,18.46,13a5.69,5.69,0,0,1-3.24,10.36Zm498.93-15.47a5.68,5.68,0,0,1-4.74-2.55q-6-9-12.77-18.42a5.68,5.68,0,1,1,9.2-6.66q7,9.63,13,18.81a5.69,5.69,0,0,1-4.73,8.82Zm-26.49-36.73a5.66,5.66,0,0,1-4.5-2.2l-13.88-17.89a5.68,5.68,0,1,1,9-7l13.88,17.9a5.67,5.67,0,0,1-1,8A5.61,5.61,0,0,1,2360.13,1618.71Zm-27.77-35.78a5.71,5.71,0,0,1-4.49-2.19L2314,1562.85a5.68,5.68,0,0,1,9-7l13.91,17.86a5.68,5.68,0,0,1-4.48,9.18Zm-27.82-35.75a5.71,5.71,0,0,1-4.49-2.19l-13.92-17.88a5.68,5.68,0,0,1,9-7L2309,1538a5.68,5.68,0,0,1-1,8A5.61,5.61,0,0,1,2304.54,1547.18Zm-27.83-35.75a5.66,5.66,0,0,1-4.49-2.19l-13.91-17.87a5.68,5.68,0,1,1,9-7l13.91,17.86a5.68,5.68,0,0,1-4.47,9.17Zm-27.81-35.75a5.66,5.66,0,0,1-4.5-2.2l-13.89-17.89a5.68,5.68,0,1,1,9-7l13.89,17.9a5.68,5.68,0,0,1-4.48,9.16Zm-27.76-35.8a5.66,5.66,0,0,1-4.5-2.2l-13.85-18a5.68,5.68,0,0,1,9-6.93l13.82,17.92a5.67,5.67,0,0,1-1,8A5.61,5.61,0,0,1,2221.14,1439.88ZM2193.51,1404a5.68,5.68,0,0,1-4.52-2.22q-6.94-9.06-13.76-18a5.68,5.68,0,0,1,9-6.88q6.78,8.92,13.74,18a5.67,5.67,0,0,1-1.06,8A5.61,5.61,0,0,1,2193.51,1404Zm-27.46-36a5.68,5.68,0,0,1-4.54-2.24q-6.9-9.12-13.66-18.11a5.68,5.68,0,0,1,9.09-6.82q6.75,9,13.63,18.06a5.68,5.68,0,0,1-4.52,9.11Zm-27.23-36.2a5.7,5.7,0,0,1-4.57-2.28q-6.83-9.18-13.5-18.21a5.68,5.68,0,1,1,9.14-6.76q6.66,9,13.48,18.18a5.67,5.67,0,0,1-4.55,9.07Zm-26.89-36.45a5.68,5.68,0,0,1-4.6-2.34q-6.75-9.26-13.3-18.36a5.68,5.68,0,0,1,9.22-6.65q6.54,9.09,13.27,18.32a5.69,5.69,0,0,1-4.59,9Zm-26.43-36.79a5.7,5.7,0,0,1-4.65-2.39q-6.61-9.37-13-18.58a5.68,5.68,0,1,1,9.32-6.5q6.39,9.2,13,18.51a5.67,5.67,0,0,1-4.63,9Zm-25.86-37.19a5.65,5.65,0,0,1-4.7-2.48q-6.46-9.49-12.69-18.83a5.68,5.68,0,0,1,9.46-6.3q6.18,9.29,12.62,18.73a5.68,5.68,0,0,1-4.69,8.88Zm-25.09-37.71a5.67,5.67,0,0,1-4.77-2.59q-6.27-9.65-12.24-19.14a5.68,5.68,0,1,1,9.62-6.06q5.94,9.43,12.15,19a5.68,5.68,0,0,1-1.68,7.86A5.61,5.61,0,0,1,2034.55,1183.62Zm-24.1-38.34a5.65,5.65,0,0,1-4.86-2.73q-6-9.85-11.64-19.54a5.68,5.68,0,1,1,9.81-5.73q5.6,9.6,11.53,19.36a5.69,5.69,0,0,1-4.84,8.64Zm-22.81-39.12a5.67,5.67,0,0,1-5-2.93q-5.61-10.07-10.85-20a5.68,5.68,0,0,1,10-5.31q5.18,9.81,10.73,19.8a5.68,5.68,0,0,1-5,8.44Zm-21.07-40.09a5.69,5.69,0,0,1-5.11-3.16q-5.13-10.4-9.79-20.59a5.68,5.68,0,0,1,10.33-4.74q4.61,10.07,9.66,20.3a5.67,5.67,0,0,1-5.09,8.19Zm-18.82-41.18a5.68,5.68,0,0,1-5.24-3.49q-4.47-10.73-8.39-21.25a5.68,5.68,0,0,1,10.65-4c2.55,6.88,5.31,13.84,8.23,20.84a5.7,5.7,0,0,1-3.06,7.44A5.77,5.77,0,0,1,1947.75,1024.89ZM1932,982.45a5.67,5.67,0,0,1-5.41-3.93c-2.39-7.39-4.57-14.79-6.49-22a5.68,5.68,0,1,1,11-2.93c1.87,7,4,14.22,6.32,21.41a5.69,5.69,0,0,1-3.66,7.16A5.89,5.89,0,0,1,1932,982.45Zm-11.66-43.7a5.67,5.67,0,0,1-5.55-4.53c-1.58-7.6-2.92-15.22-4-22.64A5.68,5.68,0,1,1,1922.1,910c1,7.18,2.31,14.56,3.84,21.92a5.69,5.69,0,0,1-5.57,6.84ZM1914.09,894a5.68,5.68,0,0,1-5.66-5.28c-.49-7-.74-14-.74-20.88v-2.21a5.68,5.68,0,0,1,5.68-5.62h.06a5.68,5.68,0,0,1,5.62,5.74v2.09c0,6.58.23,13.34.71,20.08a5.68,5.68,0,0,1-5.27,6.07Zm.39-45.24-.51,0a5.68,5.68,0,0,1-5.15-6.17c.69-7.64,1.72-15.35,3.06-22.91a5.68,5.68,0,1,1,11.19,2c-1.28,7.25-2.28,14.63-2.93,22A5.69,5.69,0,0,1,1914.48,848.75Zm7.93-44.52a5.78,5.78,0,0,1-1.48-.19,5.69,5.69,0,0,1-4-7c2-7.36,4.32-14.77,6.94-22a5.68,5.68,0,0,1,10.69,3.86c-2.52,7-4.76,14.09-6.65,21.14A5.7,5.7,0,0,1,1922.41,804.23Zm15.37-42.53a5.67,5.67,0,0,1-5.16-8c3.13-6.86,6.63-13.79,10.38-20.59a5.68,5.68,0,0,1,10,5.48c-3.62,6.57-7,13.23-10,19.83A5.65,5.65,0,0,1,1937.78,761.7Zm21.82-39.63a5.61,5.61,0,0,1-3.08-.91,5.69,5.69,0,0,1-1.69-7.86c4.09-6.31,8.49-12.68,13.1-18.9a5.68,5.68,0,0,1,9.13,6.76c-4.46,6-8.72,12.2-12.68,18.31A5.7,5.7,0,0,1,1959.6,722.07Zm26.85-36.43a5.68,5.68,0,0,1-4.37-9.3c4.71-5.69,9.78-11.49,15.06-17.27a5.69,5.69,0,0,1,8.39,7.68c-5.16,5.64-10.11,11.3-14.7,16.84A5.7,5.7,0,0,1,1986.45,685.64Zm30.56-33.4a5.68,5.68,0,0,1-4-9.7q7.92-7.9,16.5-15.82a5.68,5.68,0,1,1,7.71,8.34q-8.42,7.76-16.17,15.52A5.67,5.67,0,0,1,2017,652.24Zm33.25-30.72a5.68,5.68,0,0,1-3.7-10q8.49-7.31,17.54-14.61a5.68,5.68,0,1,1,7.13,8.84q-8.89,7.18-17.26,14.38A5.68,5.68,0,0,1,2050.26,621.52Z"/><path class="cls-61" d="M2086.08,592.58a5.68,5.68,0,0,1-3.46-10.2c3-2.29,6.07-4.59,9.15-6.88a5.69,5.69,0,1,1,6.78,9.13c-3.05,2.26-6.07,4.53-9,6.79A5.68,5.68,0,0,1,2086.08,592.58Z"/><polygon class="cls-20" points="1977.94 1554.37 1601.2 1338.48 1601.2 1209.63 1977.94 1425.53 1977.94 1554.37"/><polygon class="cls-62" points="1614.97 1333.32 1614.97 1217.59 1601.2 1209.64 1601.2 1338.48 1977.94 1554.37 1977.94 1541.25 1614.97 1333.32"/><polygon class="cls-20" points="1977.94 1372.55 1601.2 1156.66 1601.2 1027.82 1977.94 1243.71 1977.94 1372.55"/><polygon class="cls-62" points="1614.97 1151.5 1614.97 1035.77 1601.2 1027.82 1601.2 1156.66 1977.94 1372.55 1977.94 1359.43 1614.97 1151.5"/><path class="cls-63" d="M1678.13,970.43l.52.29L1232.43,270.11c-21.31-33.48-52.94-51.74-74.27-42.9L711.55,412.37l.51.29c-5.06,2.32-8.29,8-8.29,16.39V1121.4c0,15.81,11.17,35.07,24.94,43L1661.48,1703c13.78,8,25,1.59,25-14.23V996.39C1686.43,988,1683.19,978.58,1678.13,970.43Z"/><path class="cls-64" d="M1671.56,964.18l.52.29L1225.87,263.86c-21.32-33.48-52.95-51.74-74.28-42.91L705,406.12l.51.29c-5.06,2.32-8.29,8-8.29,16.39v692.34c0,15.82,11.17,35.08,24.94,43l932.77,538.54c13.78,8,24.95,1.58,24.95-14.23V990.14C1679.86,981.71,1676.62,972.33,1671.56,964.18Z"/><path class="cls-65" d="M1665,957.92l.51.3L1219.3,257.61c-21.32-33.48-53-51.75-74.28-42.91L698.41,399.86l.51.3c-5.06,2.32-8.29,7.95-8.29,16.39v692.34c0,15.81,11.17,35.08,24.94,43l932.77,538.54c13.78,8,25,1.58,25-14.23V983.89C1673.29,975.45,1670.05,966.08,1665,957.92Z"/><path class="cls-66" d="M1658.43,951.67l.51.3L1212.73,251.36c-21.32-33.48-53-51.75-74.27-42.91L691.84,393.61l.51.3c-5.05,2.32-8.29,7.95-8.29,16.39v692.34c0,15.81,11.17,35.08,24.94,43l932.77,538.53c13.78,8,25,1.59,25-14.22V977.64C1666.72,969.2,1663.48,959.83,1658.43,951.67Z"/><path class="cls-67" d="M1651.86,945.42l.51.3L1206.16,245.1c-21.32-33.47-53-51.74-74.27-42.9L685.27,387.36l.51.3c-5,2.32-8.29,7.95-8.29,16.39v692.34c0,15.81,11.17,35.07,25,43L1635.2,1678c13.78,8,25,1.59,25-14.22V971.39C1660.15,963,1656.91,953.58,1651.86,945.42Z"/><path class="cls-68" d="M1645.29,939.17l.51.3L1199.59,238.85c-21.32-33.48-52.94-51.74-74.27-42.9L678.7,381.11l.51.3c-5.05,2.32-8.29,7.95-8.29,16.39v692.34c0,15.81,11.17,35.07,25,43l932.77,538.53c13.77,8,24.94,1.59,24.94-14.22V965.13C1653.58,956.7,1650.34,947.33,1645.29,939.17Z"/><path class="cls-69" d="M1638.72,932.92l.51.3L1193,232.6c-21.32-33.48-52.94-51.74-74.27-42.9L672.13,374.86l.51.3c-5,2.32-8.29,7.95-8.29,16.38v692.35c0,15.81,11.17,35.07,24.95,43l932.77,538.53c13.77,8,24.94,1.59,24.94-14.22V958.88C1647,950.45,1643.78,941.08,1638.72,932.92Z"/><path class="cls-70" d="M1632.15,926.67l.52.3L1186.45,226.35c-21.32-33.48-52.94-51.74-74.27-42.9L665.56,368.61l.52.29c-5.06,2.32-8.3,8-8.3,16.39v692.35c0,15.81,11.17,35.07,25,43L1615.5,1659.2c13.78,8,24.94,1.59,24.94-14.22V952.63C1640.44,944.2,1637.21,934.83,1632.15,926.67Z"/><path class="cls-71" d="M1625.58,920.42l.52.29L1179.88,220.1c-21.32-33.48-52.94-51.74-74.27-42.9L659,362.36l.52.29c-5.06,2.32-8.3,8-8.3,16.39v692.35c0,15.81,11.17,35.07,24.95,43L1608.93,1653c13.78,8,24.94,1.59,24.94-14.23V946.38C1633.87,938,1630.64,928.57,1625.58,920.42Z"/><path class="cls-72" d="M1619,914.17l.52.29L1173.31,213.85C1152,180.37,1120.37,162.11,1099,171L652.42,356.11l.52.29c-5.06,2.32-8.29,8-8.29,16.39v692.34c0,15.82,11.16,35.08,24.94,43l932.77,538.54c13.78,8,25,1.58,25-14.23V940.13C1627.31,931.7,1624.07,922.32,1619,914.17Z"/><path class="cls-73" d="M1612.44,907.92l.52.29L1166.74,207.6c-21.31-33.48-52.94-51.74-74.27-42.91L645.86,349.86l.51.29c-5.06,2.32-8.29,8-8.29,16.39v692.34c0,15.81,11.17,35.08,24.94,43l932.77,538.54c13.78,8,25,1.58,25-14.23V933.88C1620.74,925.44,1617.5,916.07,1612.44,907.92Z"/><path class="cls-74" d="M1605.87,901.66l.52.3L1160.18,201.35c-21.32-33.48-53-51.75-74.28-42.91L639.29,343.6l.51.3c-5.06,2.32-8.29,8-8.29,16.39v692.34c0,15.81,11.17,35.08,24.94,43l932.77,538.53c13.78,8,25,1.59,25-14.22V927.63C1614.17,919.19,1610.93,909.82,1605.87,901.66Z"/><path class="cls-75" d="M1599.31,895.41l.51.3L1153.61,195.1c-21.32-33.48-52.95-51.75-74.28-42.91L632.72,337.35l.51.3c-5.06,2.32-8.29,8-8.29,16.39v692.34c0,15.81,11.17,35.08,24.94,43l932.77,538.53c13.78,8,24.95,1.59,24.95-14.22V921.38C1607.6,912.94,1604.36,903.57,1599.31,895.41Z"/><path class="cls-76" d="M1592.74,889.16l.51.3L1147,188.84c-21.32-33.47-53-51.74-74.27-42.9L626.15,331.1l.51.3c-5.06,2.32-8.29,8-8.29,16.39v692.34c0,15.81,11.17,35.07,24.94,43l932.77,538.53c13.78,8,25,1.59,25-14.22V915.12C1601,906.69,1597.79,897.32,1592.74,889.16Z"/><path class="cls-77" d="M1586.17,882.91l.51.3L1140.47,182.59c-21.32-33.48-53-51.74-74.27-42.9L619.58,324.85l.51.3c-5.05,2.32-8.29,8-8.29,16.38v692.35c0,15.81,11.17,35.07,25,43l932.76,538.53c13.78,8,25,1.59,25-14.22V908.87C1594.46,900.44,1591.22,891.07,1586.17,882.91Z"/><path class="cls-78" d="M1579.6,876.66l.51.3L1133.9,176.34c-21.32-33.48-52.94-51.74-74.27-42.9L613,318.6l.51.3c-5,2.31-8.29,8-8.29,16.38v692.35c0,15.81,11.17,35.07,24.95,43l932.76,538.53c13.78,8,25,1.59,25-14.22V902.62C1587.89,894.19,1584.65,884.82,1579.6,876.66Z"/><path class="cls-79" d="M1573,870.41l.51.3L1127.33,170.09c-21.32-33.48-52.94-51.74-74.27-42.9L606.44,312.35l.51.29c-5.05,2.32-8.29,8-8.29,16.39v692.35c0,15.81,11.17,35.07,25,43l932.77,538.54c13.77,8,24.94,1.59,24.94-14.22V896.37C1581.32,887.94,1578.09,878.57,1573,870.41Z"/><path class="cls-80" d="M1566.46,864.16l.52.29L1120.76,163.84c-21.32-33.48-52.94-51.74-74.27-42.9L599.87,306.1l.52.29c-5.06,2.32-8.3,8-8.3,16.39v692.35c0,15.81,11.17,35.07,24.95,43l932.77,538.54c13.78,8,24.94,1.59,24.94-14.23V890.12C1574.75,881.69,1571.52,872.31,1566.46,864.16Z"/><path class="cls-81" d="M1559.89,857.91l.52.29L1114.19,157.59c-21.32-33.48-52.94-51.74-74.27-42.9L593.3,299.85l.52.29c-5.06,2.32-8.3,8-8.3,16.39v692.34c0,15.82,11.17,35.08,25,43l932.77,538.54c13.78,8,24.94,1.58,24.94-14.23V883.87C1568.18,875.44,1565,866.06,1559.89,857.91Z"/><path class="cls-82" d="M1553.32,851.65l.52.3L1107.62,151.34c-21.32-33.48-52.94-51.75-74.27-42.91L586.73,293.59l.52.3c-5.06,2.32-8.29,8-8.29,16.39v692.34c0,15.81,11.16,35.08,24.94,43l932.77,538.54c13.78,8,24.95,1.58,24.95-14.23V877.62C1561.62,869.18,1558.38,859.81,1553.32,851.65Z"/><path class="cls-83" d="M1546.75,845.4l.52.3L1101.05,145.09c-21.31-33.48-52.94-51.75-74.27-42.91L580.17,287.34l.51.3c-5.06,2.32-8.29,7.95-8.29,16.39V996.37c0,15.81,11.16,35.08,24.94,43l932.77,538.53c13.78,8,25,1.59,25-14.22V871.37C1555.05,862.93,1551.81,853.56,1546.75,845.4Z"/><path class="cls-84" d="M1540.18,839.15l.52.3L1094.49,138.83c-21.32-33.47-53-51.74-74.28-42.9L573.6,281.09l.51.3c-5.06,2.32-8.29,7.95-8.29,16.39V990.12c0,15.81,11.17,35.08,24.94,43l932.77,538.53c13.78,8,25,1.59,25-14.22V865.12C1548.48,856.68,1545.24,847.31,1540.18,839.15Z"/><path class="cls-85" d="M1552.9,822.73l.56.33L1071,65.6c-23-36.2-57.24-55.95-80.3-46.39L507.89,219.4l.55.32c-5.47,2.5-9,8.6-9,17.71V986c0,17.1,12.07,37.92,27,46.52L1534.9,1614.7c14.89,8.6,27,1.72,27-15.38V850.8C1561.87,841.69,1558.37,831.55,1552.9,822.73Z"/><path class="cls-86" d="M1551.32,1614.09V865.56c0-9.11-3.5-19.25-9-28.06l.55.32L1060.49,80.36c-23-36.2-57.24-55.95-80.29-46.39L499.91,233.09c1-6.66,4-11.3,8.53-13.38l-.55-.31L990.74,19.21C1013.8,9.66,1048,29.4,1071,65.59l482.42,757.47-.56-.32c5.47,8.81,9,19,9,28.07v748.51c0,10.15-4.32,16.58-10.89,18.43A29.94,29.94,0,0,0,1551.32,1614.09Z"/><g class="cls-43"><path class="cls-3" d="M735.47,82.77c-49.6-28.64-89.81-5.72-89.81,51.2V847.26c0,56.92,40.21,126.28,89.81,154.92l622.86,353.18C1407.93,1384,1468,1357.93,1468,1301V587.72c0-56.92-60.09-123.13-109.69-151.77Z"/><path class="cls-87" d="M734.38,86c-49.54-28.6-89.7-5.7-89.7,51.14V846.63c0,56.84,40.16,126.11,89.7,154.72l621.39,352.33c49.54,28.6,107.77,2.85,107.77-54V590.18c0-56.85-58.23-123.26-107.77-151.86Z"/><path class="cls-88" d="M733.3,89.2c-49.48-28.57-89.59-5.7-89.59,51.08V846c0,56.78,40.11,126,89.59,154.52L1353.21,1352c49.48,28.56,105.85,3.12,105.85-53.66V592.63c0-56.77-56.37-123.38-105.85-151.95Z"/><path class="cls-89" d="M732.21,92.42c-49.41-28.53-89.47-5.7-89.47,51V845.35c0,56.71,40.06,125.8,89.47,154.33l618.44,350.63c49.42,28.53,103.93,3.4,103.93-53.3V595.09c0-56.71-54.51-123.52-103.93-152Z"/><path class="cls-90" d="M731.12,95.63c-49.35-28.49-89.36-5.68-89.36,51V844.72c0,56.63,40,125.64,89.36,154.13l617,349.78c49.36,28.49,102,3.68,102-53V597.54c0-56.63-52.65-123.64-102-152.13Z"/><path class="cls-91" d="M730,98.85c-49.29-28.46-89.25-5.68-89.25,50.88V844.08c0,56.56,40,125.48,89.25,153.94l615.5,348.92c49.29,28.46,100.09,4,100.09-52.6V600c0-56.56-50.8-123.77-100.09-152.23Z"/><path class="cls-92" d="M729,102.07c-49.23-28.43-89.13-5.67-89.13,50.81V843.44c0,56.49,39.9,125.32,89.13,153.75l614,348.07c49.23,28.42,98.17,4.24,98.17-52.25V602.45c0-56.49-48.94-123.89-98.17-152.31Z"/><path class="cls-93" d="M727.87,105.28c-49.17-28.38-89-5.66-89,50.76V842.8c0,56.42,39.86,125.17,89,153.55l612.55,347.22c49.16,28.39,96.25,4.52,96.25-51.9V604.91c0-56.42-47.09-124-96.25-152.41Z"/><path class="cls-94" d="M726.78,108.5c-49.1-28.35-88.91-5.66-88.91,50.69v683c0,56.34,39.81,125,88.91,153.35l611.08,346.37c49.1,28.35,94.33,4.79,94.33-51.55v-683c0-56.34-45.23-124.15-94.33-152.5Z"/><path class="cls-95" d="M725.69,111.71c-49-28.31-88.79-5.64-88.79,50.63V841.53c0,56.27,39.75,124.85,88.79,153.16L1335.3,1340.2c49,28.32,92.41,5.08,92.41-51.2V609.82c0-56.28-43.37-124.28-92.41-152.59Z"/><path class="cls-96" d="M724.61,114.93c-49-28.28-88.69-5.64-88.69,50.56v675.4c0,56.21,39.71,124.69,88.69,153l608.13,344.66c49,28.28,90.49,5.35,90.49-50.85V612.27c0-56.2-41.51-124.4-90.49-152.68Z"/><path class="cls-55" d="M723.52,118.15C674.6,89.91,635,112.51,635,168.65V840.26c0,56.13,39.65,124.52,88.57,152.76l606.67,343.81c48.91,28.25,88.57,5.64,88.57-50.49V614.73c0-56.14-39.66-124.53-88.57-152.77Z"/></g><path class="cls-97" d="M1418.6,609c0-56.32-39.79-125-88.87-153.3L721,110.75c-49.09-28.34-88.88-5.66-88.88,50.67V281.31l786.47,447.3Z"/><path class="cls-17" d="M721,1036.68l608.72,345c49.08,28.34,88.87,5.66,88.87-50.67V689L632.13,241.66V883.38C632.13,939.71,671.92,1008.34,721,1036.68Z"/><path class="cls-98" d="M1329.73,455.74,721,110.75c-49.09-28.34-88.88-5.66-88.88,50.67V170c0-56.32,39.79-79,88.88-50.67l608.72,345c49.08,28.34,88.87,97,88.87,153.29V609C1418.6,552.72,1378.81,484.08,1329.73,455.74Z"/><polygon class="cls-99" points="883.54 891.42 695.25 782.71 695.25 363.8 883.54 472.51 883.54 891.42"/><polygon class="cls-100" points="883.54 559.87 695.25 451.16 695.25 363.8 883.54 472.51 883.54 559.87"/><polygon class="cls-99" points="1113.24 1024.04 924.95 915.33 924.95 496.42 1113.24 605.13 1113.24 1024.04"/><polygon class="cls-99" points="1342.95 1156.66 1154.66 1047.95 1154.66 629.04 1342.95 737.75 1342.95 1156.66"/><polygon class="cls-101" points="1113.24 692.49 924.95 583.78 924.95 496.42 1113.24 605.13 1113.24 692.49"/><polygon class="cls-102" points="1342.95 825.11 1154.66 716.4 1154.66 629.04 1342.95 737.75 1342.95 825.11"/><path class="cls-103" d="M1071.33,1034.07c-23.48,9.73-58.3-10.38-81.77-47.23L499.48,248.28V955c0,17.09,12.07,37.92,27,46.52L1534.9,1583.75c14.89,8.6,27,1.72,27-15.38V861.65Z"/><path class="cls-104" d="M1071.33,1065c-23.48,9.73-58.3-10.38-81.77-47.23L499.48,248.28V986c0,17.1,12.07,37.92,27,46.52L1534.9,1614.7c14.89,8.6,27,1.72,27-15.38V861.65Z"/><path class="cls-105" d="M1060.79,1084c-23.48,9.73-58.3-10.38-81.77-47.23L499.47,248.28l490.09,769.51c23.47,36.85,58.29,57,81.77,47.23l490.54-203.37Z"/><path class="cls-103" d="M523.82,1031.64l-.53-.31L986.57,816.05c22.13-9.2,55,9.76,77.11,44.5l463.7,750.5-.53-.31Z"/><path class="cls-106" d="M523.82,1031.64l-.53-.31L986.57,838.87c22.13-9.2,55,9.75,77.11,44.5l463.7,727.68-.53-.31Z"/><path class="cls-107" d="M1057.36,894.44c-22.15-34.75-55-53.7-77.12-44.5l-448.45,186.3-8-4.6-.53-.31L986.57,838.87c22.13-9.2,55,9.75,77.11,44.49l463.7,727.69-.53-.31-20.64-11.92Z"/><path class="cls-108" d="M1681.45,1142.68a48,48,0,0,1-9.89-11.84c-1.63-2.73-1.58-5.7,0-6.63a12.57,12.57,0,0,0,5-5.63c1.73.48,3.88-.15,3.88-2.53a9.42,9.42,0,0,0-2.5-6.4c-.42-10.37-4-21-15.9-27.92s-15.47-.32-15.9,9.57c-1.43-.32-2.5,1.08-2.5,3.5s2.15,5.5,3.88,7a56.13,56.13,0,0,0,5.05,11.46c1.59,2.76,1.65,5.79,0,6.64-2.7,1.41-6.1,1.57-9.88.42-5-1.51-8.73,1.51-8.73,7.68v10.69a7.21,7.21,0,0,0,3.27,5.65l49.61,28.64c1.8,1,3.27.2,3.27-1.87v-10.69C1690.18,1154.27,1686.45,1147,1681.45,1142.68Z"/><path class="cls-108" d="M1639.21,1322a63.81,63.81,0,0,1-9.41-28.62c-.12-2.64-.18-1.83-.18-5.14s.06-6.19.18-8.41q.87-8.73,4.68-13.68a13.18,13.18,0,0,1,10.65-5.16q6.86-.21,16.31,5.26c20.78,12,32,31.8,33,50.88.11,2.77.18,3.74.18,5.43,0,2.5-.07,4.6-.18,6.28q-.36,7.11-3.9,9t-8.83-1.14a22.76,22.76,0,0,1-6.49-5.48,28.37,28.37,0,0,1-3.85-6,5.92,5.92,0,0,1-3.93,2.35c-1.69.27-4.15-.52-7.39-2.39a26.64,26.64,0,0,1-10.47-11.52,38.54,38.54,0,0,1-3.84-17.43q0-9.75,3.8-13.07t10.34.44a20.09,20.09,0,0,1,5.3,4.33,26.46,26.46,0,0,1,3.63,5.59v-1.52c0-.75.2-1.22.61-1.42a1.59,1.59,0,0,1,1.51.21l3.53,2a4.24,4.24,0,0,1,2.12,3.66v21.09a14.2,14.2,0,0,0,1.37,6.47,9.5,9.5,0,0,0,3.76,4.1c1.83,1.06,3.12,1,3.89-.08a8.11,8.11,0,0,0,1.15-4.62c.11-2,.18-4,.18-6.29,0-1-.07-1.51-.18-4a40.7,40.7,0,0,0-6.5-20.7,54.71,54.71,0,0,0-18.78-17.62q-10.79-6.23-16.75-3.43t-7,13.43q-.27,2.38-.27,7.86a25.87,25.87,0,0,0,.27,4.68,46.06,46.06,0,0,0,7.11,21.5,49.38,49.38,0,0,0,17.36,16.07,52.58,52.58,0,0,0,9,4.34,15.61,15.61,0,0,0,5.35,1.06,22.88,22.88,0,0,0,4-.67c.53-.16.94-.28,1.24-.35a1.83,1.83,0,0,1,1.23.36l5,2.86a4.23,4.23,0,0,1,1.51,1.57,4.19,4.19,0,0,1,.61,2.08,2.17,2.17,0,0,1-.52,1.22q-9.37,6.55-27.41-3.85Q1647.3,1335.05,1639.21,1322Zm27.75-4.34c1.21-1.32,1.82-4,1.82-8.07a25.48,25.48,0,0,0-1.82-10.23,13.67,13.67,0,0,0-5.87-6.49q-7.62-4.39-7.6,7.89a25,25,0,0,0,1.89,10,13.63,13.63,0,0,0,5.71,6.59C1663.79,1318.91,1665.76,1319,1667,1317.69Z"/><ellipse class="cls-17" cx="1839.52" cy="1630.34" rx="21.6" ry="37.41" transform="translate(-571.35 1151.25) rotate(-30.31)"/><polygon class="cls-109" points="2507.32 236.4 2036.96 457.42 2081.6 601.19 2507.32 236.4"/><polygon class="cls-110" points="2507.32 236.4 2036.96 457.42 2081.6 601.19 2507.32 236.4"/><polygon class="cls-111" points="2507.32 236.4 2036.96 457.42 1958.64 462.78 1912.29 419.87 2507.32 236.4"/><polygon class="cls-112" points="2507.32 236.4 2126.23 509.35 2081.6 601.19 2507.32 236.4"/><polygon class="cls-113" points="2507.32 236.4 2126.23 509.35 2081.6 601.19 2507.32 236.4"/><polygon class="cls-114" points="2507.32 236.4 2126.23 509.35 2185.67 574.79 2258.63 601.4 2507.32 236.4"/><polygon class="cls-115" points="2258.63 601.4 2185.67 574.79 2126.23 509.35 2081.6 601.19 2036.96 457.42 1958.64 462.78 1912.29 419.87 1960.36 461.5 2038.31 456.88 2082.03 595.18 2126.23 509.35 2185.88 572 2258.63 601.4"/><path class="cls-116" d="M586.44,1659.84a5.69,5.69,0,0,1,0-11.37,178.64,178.64,0,0,0,22-1.41,5.68,5.68,0,1,1,1.4,11.28,191.25,191.25,0,0,1-23.35,1.5Zm-22.63-1.53a5.37,5.37,0,0,1-.8,0,150.47,150.47,0,0,1-23-5.08,5.68,5.68,0,1,1,3.33-10.86,138.83,138.83,0,0,0,21.27,4.68,5.68,5.68,0,0,1-.78,11.31Zm67.64-3.94a5.68,5.68,0,0,1-1.28-11.21c7-1.63,14.2-3.65,21.39-6a5.68,5.68,0,1,1,3.54,10.8c-7.51,2.46-15,4.57-22.35,6.27A5.3,5.3,0,0,1,631.45,1654.37ZM520.59,1645a5.6,5.6,0,0,1-2.53-.6,141.59,141.59,0,0,1-20.18-12.32,5.68,5.68,0,0,1,6.71-9.17,128.93,128.93,0,0,0,18.54,11.32,5.68,5.68,0,0,1-2.54,10.77Zm154-4.7a5.68,5.68,0,0,1-2.18-10.93c6.68-2.76,13.54-5.87,20.37-9.22a5.68,5.68,0,0,1,5,10.19c-7.06,3.47-14.14,6.68-21,9.53A5.75,5.75,0,0,1,674.63,1640.32Zm-190.57-22a5.69,5.69,0,0,1-4-1.69,163.8,163.8,0,0,1-15.26-17.9,5.69,5.69,0,0,1,9.16-6.74,153.27,153.27,0,0,0,14.18,16.65,5.69,5.69,0,0,1-4,9.68ZM457.11,1582a5.67,5.67,0,0,1-5-2.92A207.52,207.52,0,0,1,442,1558a5.68,5.68,0,0,1,10.49-4.37,196.42,196.42,0,0,0,9.59,19.87,5.68,5.68,0,0,1-2.21,7.73A5.58,5.58,0,0,1,457.11,1582Zm-17.55-41.82a5.67,5.67,0,0,1-5.43-4c-2.21-7.18-4.16-14.73-5.82-22.47a5.68,5.68,0,0,1,11.11-2.39c1.59,7.43,3.47,14.66,5.57,21.53a5.68,5.68,0,0,1-5.43,7.34ZM430,1495.76a5.69,5.69,0,0,1-5.63-4.93c-1-7.45-1.76-15.19-2.28-23a5.68,5.68,0,0,1,11.34-.74c.49,7.56,1.23,15,2.2,22.23a5.68,5.68,0,0,1-4.87,6.39A4.85,4.85,0,0,1,430,1495.76Zm-3-45.71a5.37,5.37,0,0,1-5.68-5.3c0-8,.22-15.53.63-23a5.68,5.68,0,1,1,11.35.64c-.41,7.28-.61,14.56-.61,21.64A6,6,0,0,1,427,1450.05Zm2.52-45a4.5,4.5,0,0,1-.63,0,5.68,5.68,0,0,1-5-6.27c.81-7.44,1.85-15.11,3.09-22.8a5.68,5.68,0,0,1,11.22,1.8c-1.21,7.5-2.22,15-3,22.24A5.68,5.68,0,0,1,429.51,1405.07Zm7-44.9a4.86,4.86,0,0,1-1.07-.11,5.67,5.67,0,0,1-4.52-6.64q2.18-11.37,4.46-22.36a5.68,5.68,0,0,1,11.12,2.28c-1.48,7.27-3,14.67-4.42,22.21A5.69,5.69,0,0,1,436.54,1360.17Zm9-44.57a6,6,0,0,1-1.11-.11,5.66,5.66,0,0,1-4.47-6.67c1.49-7.52,2.89-14.91,4.12-22.18a5.68,5.68,0,1,1,11.2,1.89c-1.24,7.38-2.66,14.87-4.18,22.49A5.67,5.67,0,0,1,445.5,1315.6Zm7.34-44.83a4.43,4.43,0,0,1-.63,0,5.68,5.68,0,0,1-5-6.27c.88-7.93,1.35-15.17,1.46-22.13a5.69,5.69,0,0,1,11.37.17c-.12,7.33-.62,14.92-1.54,23.2A5.67,5.67,0,0,1,452.84,1270.77Zm.44-45.33a5.69,5.69,0,0,1-5.64-5,137.69,137.69,0,0,0-4.12-21.38,5.68,5.68,0,1,1,11-3,148.85,148.85,0,0,1,4.46,23.16,5.67,5.67,0,0,1-5,6.28C453.71,1225.42,453.49,1225.44,453.28,1225.44Zm-12.17-43.53a5.66,5.66,0,0,1-5.15-3.27,141.15,141.15,0,0,0-10.78-18.94,5.68,5.68,0,0,1,9.43-6.35,152.56,152.56,0,0,1,11.63,20.47,5.66,5.66,0,0,1-2.73,7.55A5.52,5.52,0,0,1,441.11,1181.91ZM416,1144.26a5.68,5.68,0,0,1-4.27-1.94c-4.64-5.3-9.84-10.63-15.43-15.85a5.68,5.68,0,1,1,7.74-8.31,229.79,229.79,0,0,1,16.24,16.67,5.69,5.69,0,0,1-4.28,9.43Zm-33.07-31a5.59,5.59,0,0,1-3.53-1.24c-5.59-4.44-11.63-8.92-17.94-13.33a5.68,5.68,0,1,1,6.49-9.32c6.52,4.54,12.75,9.17,18.52,13.76a5.68,5.68,0,0,1-3.54,10.13Zm-37.18-26.06a5.73,5.73,0,0,1-3-.87q-9.15-5.74-19.3-11.53a5.68,5.68,0,0,1,5.64-9.87q10.35,5.92,19.7,11.77a5.69,5.69,0,0,1-3,10.5Zm-39.41-22.6a5.62,5.62,0,0,1-2.65-.66q-9.63-5.09-20.09-10.27a5.68,5.68,0,0,1,5.05-10.18q10.59,5.25,20.35,10.41a5.68,5.68,0,0,1-2.66,10.7Zm-40.7-20.16a5.65,5.65,0,0,1-2.39-.53q-9.94-4.64-20.59-9.35a5.68,5.68,0,0,1,4.6-10.38q10.74,4.74,20.79,9.43a5.68,5.68,0,0,1-2.41,10.83Zm-41.38-18.74a5.79,5.79,0,0,1-2.39-.52q-10.62-4.91-20.64-9.78a5.68,5.68,0,0,1,5-10.22q9.93,4.83,20.44,9.68a5.68,5.68,0,0,1-2.38,10.84ZM183.4,1005.8a5.58,5.58,0,0,1-2.58-.63q-10.45-5.35-20.22-10.69a5.68,5.68,0,0,1,5.45-10q9.63,5.25,19.95,10.56a5.68,5.68,0,0,1-2.6,10.73ZM143.53,984a5.57,5.57,0,0,1-2.85-.78q-10.23-6-19.6-11.87a5.68,5.68,0,0,1,6-9.61q9.23,5.81,19.27,11.67A5.68,5.68,0,0,1,143.53,984Zm-38.42-24.25a5.61,5.61,0,0,1-3.21-1c-6.51-4.46-12.78-9-18.65-13.44a5.68,5.68,0,1,1,6.88-9.05c5.72,4.35,11.84,8.76,18.2,13.13a5.68,5.68,0,0,1-3.22,10.36ZM69,932.24a5.66,5.66,0,0,1-3.7-1.37c-6.11-5.25-11.83-10.53-17-15.68a5.67,5.67,0,1,1,8-8c5,4.94,10.49,10,16.39,15.09a5.68,5.68,0,0,1-3.7,10ZM37,900.12a5.7,5.7,0,0,1-4.38-2.06,183.77,183.77,0,0,1-13.81-18.92,5.68,5.68,0,1,1,9.6-6.07,171.86,171.86,0,0,0,13,17.74A5.69,5.69,0,0,1,37,900.12ZM13.07,861.7a5.71,5.71,0,0,1-5.26-3.51,109.29,109.29,0,0,1-6.74-22.93,5.67,5.67,0,0,1,4.63-6.57,5.74,5.74,0,0,1,6.57,4.63,96.72,96.72,0,0,0,6.05,20.52,5.68,5.68,0,0,1-5.25,7.86ZM5.69,817.35a4.18,4.18,0,0,1-.5,0A5.68,5.68,0,0,1,0,811.18a93.62,93.62,0,0,1,5.22-23.5,5.69,5.69,0,1,1,10.7,3.85,82,82,0,0,0-4.6,20.64A5.67,5.67,0,0,1,5.69,817.35ZM20.62,775a5.61,5.61,0,0,1-3-.88,5.68,5.68,0,0,1-1.77-7.83,140.27,140.27,0,0,1,14.34-18.8A5.68,5.68,0,0,1,38.61,755a129.59,129.59,0,0,0-13.18,17.28A5.69,5.69,0,0,1,20.62,775Zm30.06-33.84a5.68,5.68,0,0,1-3.69-10,226.48,226.48,0,0,1,18.48-14.2A5.68,5.68,0,1,1,72,726.24a220.69,220.69,0,0,0-17.57,13.5A5.66,5.66,0,0,1,50.68,741.11Zm37.26-26a5.68,5.68,0,0,1-2.84-10.6c6.5-3.75,13.39-7.39,20.46-10.81a5.68,5.68,0,1,1,5,10.22c-6.83,3.31-13.48,6.82-19.75,10.43A5.6,5.6,0,0,1,87.94,715.12Zm40.88-19.87a5.69,5.69,0,0,1-2.14-11c7-2.87,14.31-5.6,21.61-8.09A5.68,5.68,0,0,1,152,687c-7.08,2.42-14.15,5.06-21,7.85A5.61,5.61,0,0,1,128.82,695.25Zm43-14.7a5.68,5.68,0,0,1-1.52-11.16c7.48-2.08,15-3.93,22.42-5.51A5.68,5.68,0,1,1,195.12,675c-7.17,1.53-14.49,3.33-21.76,5.35A5.61,5.61,0,0,1,171.85,680.55Zm44.47-9.45a5.68,5.68,0,0,1-.8-11.31c7.94-1.14,15.7-1.94,23.09-2.39a5.79,5.79,0,0,1,6,5.33,5.7,5.7,0,0,1-5.33,6c-7.08.42-14.53,1.19-22.15,2.29A5.76,5.76,0,0,1,216.32,671.1Zm68.07-1.61h-.08c-7.46-.09-15-.38-22.48-.84l-.15-5.7.52-5.66c7.6.47,15,.74,22.26.84a5.68,5.68,0,0,1-.07,11.36Zm22.72-.3a5.68,5.68,0,0,1-.23-11.36c7.63-.32,15.15-.84,22.35-1.56a5.74,5.74,0,0,1,6.21,5.09,5.68,5.68,0,0,1-5.09,6.22c-7.41.74-15.15,1.28-23,1.6Zm45.19-4.58a5.68,5.68,0,0,1-.94-11.28c7.56-1.29,14.9-2.82,21.81-4.56a5.68,5.68,0,0,1,2.78,11c-7.2,1.82-14.84,3.41-22.69,4.74A5.18,5.18,0,0,1,352.3,664.61Zm44-11.22a5.68,5.68,0,0,1-1.91-11,177.23,177.23,0,0,0,20.23-8.62,5.68,5.68,0,1,1,5.14,10.13,187.94,187.94,0,0,1-21.54,9.19A5.62,5.62,0,0,1,396.31,653.39Zm40.28-20.71a5.68,5.68,0,0,1-3.38-10.25A94.87,94.87,0,0,0,449,608a5.68,5.68,0,0,1,8.63,7.4A106.34,106.34,0,0,1,440,631.57,5.67,5.67,0,0,1,436.59,632.68Zm28.79-34.42a5.56,5.56,0,0,1-2.28-.48,5.69,5.69,0,0,1-2.92-7.49,64.91,64.91,0,0,0,5.2-20.11,5.68,5.68,0,1,1,11.32,1.06,76.56,76.56,0,0,1-6.12,23.63A5.66,5.66,0,0,1,465.38,598.26ZM470,553.78a5.69,5.69,0,0,1-5.59-4.67,107.55,107.55,0,0,0-6-20.66,5.68,5.68,0,0,1,10.56-4.2,119.22,119.22,0,0,1,6.67,22.85,5.69,5.69,0,0,1-4.59,6.6A5.81,5.81,0,0,1,470,553.78Zm-16.3-42.12a5.67,5.67,0,0,1-4.93-2.85,214.36,214.36,0,0,0-12.06-18.54,5.68,5.68,0,0,1,9.21-6.66,226.21,226.21,0,0,1,12.7,19.53,5.69,5.69,0,0,1-2.09,7.76A5.62,5.62,0,0,1,453.65,511.66Zm-26.44-36.88a5.66,5.66,0,0,1-4.33-2c-4.58-5.39-9.63-11-15-16.57a5.68,5.68,0,1,1,8.19-7.87c5.55,5.77,10.76,11.52,15.49,17.09a5.68,5.68,0,0,1-4.33,9.36ZM395.8,442a5.63,5.63,0,0,1-3.9-1.55Q384,433,375.21,425.37a5.69,5.69,0,1,1,7.45-8.59c6,5.21,11.66,10.33,17,15.39a5.69,5.69,0,0,1-3.9,9.82Zm-34.29-29.83a5.66,5.66,0,0,1-3.57-1.26Q349.43,404,340.2,397a5.68,5.68,0,0,1,6.89-9q9.39,7.15,18,14.13a5.68,5.68,0,0,1-3.58,10.1ZM325.39,384.6a5.65,5.65,0,0,1-3.32-1.08q-8.93-6.45-18.46-13a5.68,5.68,0,1,1,6.46-9.35q9.65,6.64,18.66,13.18a5.68,5.68,0,0,1-3.34,10.28ZM288,358.78a5.64,5.64,0,0,1-3.13-.94q-9.22-6.1-19-12.3A5.68,5.68,0,0,1,272,336q9.86,6.26,19.16,12.41A5.68,5.68,0,0,1,288,358.78Zm-38.36-24.37a5.72,5.72,0,0,1-3-.85L244.07,332q-8.65-5.3-16.77-10.48a5.68,5.68,0,1,1,6.11-9.57q8,5.11,16.59,10.35l2.64,1.62a5.69,5.69,0,0,1-3,10.52Zm-38.26-24.53a5.74,5.74,0,0,1-3.19-1q-9.81-6.67-18.74-13.18a5.68,5.68,0,1,1,6.69-9.19q8.81,6.41,18.44,13a5.68,5.68,0,0,1-3.2,10.38Zm-36.69-26.79a5.68,5.68,0,0,1-3.53-1.23C165,277,159,272,153.48,267.17a5.68,5.68,0,0,1,7.47-8.55c5.41,4.72,11.21,9.54,17.27,14.34a5.68,5.68,0,0,1-3.53,10.13Zm-34.13-30a5.71,5.71,0,0,1-4-1.64c-5.77-5.73-11.09-11.42-15.82-16.95a5.68,5.68,0,1,1,8.64-7.38c4.52,5.29,9.62,10.75,15.18,16.25a5.68,5.68,0,0,1-4,9.72Zm585-31.43a5.58,5.58,0,0,1-2.87-.79q-9.78-5.78-19.59-11.27a5.69,5.69,0,1,1,5.56-9.92q9.92,5.56,19.8,11.4a5.69,5.69,0,0,1-2.9,10.58ZM111.27,218.5a5.67,5.67,0,0,1-4.72-2.51A136.74,136.74,0,0,1,95,195.33a5.68,5.68,0,0,1,10.39-4.61A126.26,126.26,0,0,0,116,209.64a5.68,5.68,0,0,1-4.7,8.86Zm574.65-19.06a5.56,5.56,0,0,1-2.66-.67q-10-5.34-20.06-10.4a5.68,5.68,0,0,1,5.12-10.15q10.15,5.11,20.28,10.52a5.68,5.68,0,0,1-2.68,10.7Zm-40.57-20.5a5.74,5.74,0,0,1-2.44-.55q-10.26-4.9-20.5-9.54a5.69,5.69,0,0,1,4.69-10.36q10.35,4.69,20.71,9.64a5.68,5.68,0,0,1-2.46,10.81ZM93.62,177A5.67,5.67,0,0,1,88,172.19a67.82,67.82,0,0,1-.77-10.09A61.43,61.43,0,0,1,89,147.46a5.69,5.69,0,1,1,11,2.72A49.68,49.68,0,0,0,98.6,162.1a57.53,57.53,0,0,0,.64,8.41A5.66,5.66,0,0,1,94.47,177,5,5,0,0,1,93.62,177ZM604,160.21a5.76,5.76,0,0,1-2.22-.45q-10.47-4.47-20.9-8.66a5.68,5.68,0,1,1,4.24-10.53q10.53,4.22,21.11,8.73A5.68,5.68,0,0,1,604,160.21Zm-42.2-16.91a5.56,5.56,0,0,1-2-.37q-10.66-4-21.24-7.71a5.68,5.68,0,1,1,3.75-10.72q10.71,3.73,21.48,7.79a5.69,5.69,0,0,1-2,11Zm-457.44-9.07a5.69,5.69,0,0,1-4.53-9.11,83.72,83.72,0,0,1,17.46-16.88,5.68,5.68,0,0,1,6.7,9.18A71.87,71.87,0,0,0,108.85,132,5.68,5.68,0,0,1,104.31,134.23Zm414.56-6a5.74,5.74,0,0,1-1.77-.28q-10.83-3.54-21.56-6.77a5.68,5.68,0,1,1,3.28-10.87q10.85,3.26,21.81,6.84a5.68,5.68,0,0,1-1.76,11.08Zm-43.53-13.1a5.72,5.72,0,0,1-1.51-.21q-11-3-21.84-5.75a5.68,5.68,0,1,1,2.75-11q11,2.73,22.11,5.82a5.68,5.68,0,0,1-1.51,11.16Zm-335.16-8.08a5.68,5.68,0,0,1-2.44-10.82,179.67,179.67,0,0,1,21.85-8.54,5.68,5.68,0,0,1,3.47,10.82,167.74,167.74,0,0,0-20.45,8A5.73,5.73,0,0,1,140.18,107.07Zm291.07-3A5.84,5.84,0,0,1,430,104q-11.16-2.5-22.1-4.67a5.68,5.68,0,1,1,2.2-11.14q11.1,2.18,22.38,4.72a5.68,5.68,0,0,1-1.23,11.23Zm-44.6-8.83a5.18,5.18,0,0,1-1-.08q-11.28-1.94-22.31-3.5a5.68,5.68,0,0,1-4.82-6.42A5.57,5.57,0,0,1,365,80.46Q376.16,82,387.6,84a5.68,5.68,0,0,1-1,11.28ZM183.26,92.91a5.68,5.68,0,0,1-1.21-11.23c7.24-1.59,14.9-3,22.76-4.12a5.68,5.68,0,0,1,1.63,11.25c-7.58,1.1-15,2.44-21.95,4A5.78,5.78,0,0,1,183.26,92.91Zm158.4-4c-.22,0-.43,0-.65,0q-11.4-1.28-22.44-2.16a5.7,5.7,0,0,1-5.21-6.13,5.79,5.79,0,0,1,6.12-5.21q11.22.91,22.8,2.21a5.68,5.68,0,0,1-.62,11.32ZM228.19,86.3A5.68,5.68,0,0,1,227.71,75c7.39-.64,15.12-1.1,23-1.38a5.69,5.69,0,0,1,.4,11.37c-7.67.26-15.21.71-22.4,1.33Zm68.15-1h-.26q-11.49-.52-22.5-.6a5.69,5.69,0,0,1,0-11.37h0q11.24.08,22.94.62a5.68,5.68,0,0,1-.25,11.36Z"/><ellipse class="cls-17" cx="421.86" cy="1393.02" rx="86.14" ry="149.21" transform="translate(-645.37 403.33) rotate(-30.31)"/><path class="cls-117" d="M469.36,1532.79c-15.48,0-32.1-5.06-49.39-15-59.41-34.3-107.74-117.66-107.74-185.84,0-47.79,24.39-78.66,62.13-78.66,15.48,0,32.11,5.06,49.39,15,59.41,34.3,107.74,117.66,107.74,185.83C531.49,1501.91,507.1,1532.79,469.36,1532.79Zm-95-272c-33.65,0-54.55,27.24-54.55,71.09,0,65.76,46.63,146.19,103.94,179.27,16.13,9.31,31.48,14,45.61,14,33.65,0,54.55-27.24,54.55-71.09,0-65.76-46.63-146.18-103.94-179.27C403.85,1265.54,388.49,1260.82,374.36,1260.82Z"/><ellipse class="cls-17" cx="260.4" cy="349.56" rx="86.14" ry="149.21" transform="translate(-140.82 179.2) rotate(-30.31)"/><path class="cls-118" d="M307.9,489.33c-15.5,0-32.11-5.06-49.4-15C199.09,440,150.77,356.63,150.77,288.45c0-47.79,24.38-78.66,62.12-78.66,15.49,0,32.11,5.06,49.4,15C321.69,259.13,370,342.49,370,410.66,370,458.45,345.63,489.33,307.9,489.33Zm-95-272c-33.65,0-54.55,27.24-54.55,71.09,0,65.76,46.63,146.19,104,179.28,16.12,9.3,31.46,14,45.61,14,33.64,0,54.54-27.24,54.54-71.09,0-65.76-46.63-146.18-103.94-179.27C242.38,222.08,227,217.36,212.89,217.36Z"/><path class="cls-119" d="M300.09,312.74c-14.63-8.45-27.31-6.27-33.66,4-6.35-17.57-19-34.39-33.65-42.83-21-12.12-38-2.42-38,21.66,0,44,71.65,139.78,71.65,139.78s71.65-13,71.65-57C338.08,354.2,321.07,324.85,300.09,312.74Z"/><path class="cls-120" d="M266.43,435.32s71.65-13,71.65-57c0-24.08-17-53.43-38-65.54-14.63-8.45-27.31-6.27-33.66,4Z"/><ellipse class="cls-17" cx="260.4" cy="663.95" rx="86.14" ry="149.21" transform="translate(-299.49 222.18) rotate(-30.31)"/><path class="cls-121" d="M307.9,803.72c-15.5,0-32.11-5.06-49.4-15C199.09,754.38,150.77,671,150.77,602.85c0-47.79,24.38-78.67,62.12-78.67,15.49,0,32.11,5.06,49.4,15C321.69,573.52,370,656.88,370,725.06,370,772.85,345.63,803.72,307.9,803.72Zm-95-272c-33.65,0-54.55,27.24-54.55,71.09,0,65.76,46.63,146.18,104,179.27,16.12,9.31,31.46,14,45.61,14,33.64,0,54.54-27.24,54.54-71.09,0-65.77-46.63-146.19-103.94-179.28C242.38,536.48,227,531.76,212.89,531.76Z"/><path class="cls-122" d="M259.08,580.82c-36.52-21.09-66.14-4.2-66.14,37.71,0,40,27,88.37,61.3,111v37.3l28.64-25.63c24.75,3.31,42.34-14,42.34-46.3C325.22,653,295.61,601.91,259.08,580.82Zm-26.15,68.66c-4,2.29-10.53-1.47-14.54-8.4s-4-14.4,0-16.68,10.53,1.46,14.54,8.39S237,647.19,232.93,649.48Zm33.42,19.29c-4,2.29-10.53-1.47-14.54-8.39s-4-14.4,0-16.69,10.53,1.47,14.54,8.4S270.37,666.48,266.35,668.77Zm33.42,19.3c-4,2.29-10.52-1.47-14.54-8.4s-4-14.39,0-16.68,10.53,1.47,14.54,8.39S303.79,685.78,299.77,688.07Z"/><path class="cls-123" d="M259.08,580.82l0,0v63.61a21,21,0,0,1,7.31,7.68c4,6.92,4,14.39,0,16.68-2,1.16-4.67.77-7.31-.77v94.54l23.84-21.34c24.75,3.31,42.34-14,42.34-46.3C325.22,653,295.61,601.91,259.08,580.82Zm40.69,107.25c-4,2.29-10.52-1.47-14.54-8.4s-4-14.39,0-16.68,10.53,1.47,14.54,8.39S303.79,685.78,299.77,688.07Z"/><ellipse class="cls-17" cx="741.93" cy="1552.94" rx="86.14" ry="149.21" transform="translate(-682.33 586.73) rotate(-30.31)"/><path class="cls-124" d="M789.43,1692.71c-15.49,0-32.1-5.06-49.39-15C680.63,1643.37,632.3,1560,632.3,1491.83c0-47.79,24.39-78.66,62.13-78.66,15.49,0,32.1,5.06,49.39,15,59.41,34.3,107.74,117.66,107.74,185.83C851.56,1661.83,827.17,1692.71,789.43,1692.71Zm-95-272c-33.65,0-54.55,27.24-54.55,71.09,0,65.77,46.63,146.19,103.94,179.28,16.13,9.3,31.47,14,45.61,14,33.65,0,54.55-27.24,54.55-71.09,0-65.76-46.63-146.18-103.94-179.27C723.92,1425.46,708.57,1420.74,694.43,1420.74Z"/><path class="cls-125" d="M746.94,1609.32l-36.67,1c-3.44.09-7.48-5.6-6.82-9.63l7-42.8a8.83,8.83,0,0,0-1.36-5.56L679.44,1502c-2.79-4.73-1.25-9.28,2.61-7.7l41,16.83c1.53.63,2.85.29,3.54-.91l18.33-32c1.73-3,6.71-.13,8.43,4.87l18.34,53.21a10.77,10.77,0,0,0,3.54,5l41,30.5c3.86,2.87,5.4,9.19,2.61,10.7l-29.67,16.06c-1.11.6-1.61,2.09-1.35,4l7,50.89c.66,4.79-3.37,5.83-6.82,1.75l-36.66-43.28C750,1610.23,748.31,1609.28,746.94,1609.32Z"/><path class="cls-126" d="M818.82,1582.45c2.79-1.51,1.25-7.84-2.61-10.71l-41-30.5a10.7,10.7,0,0,1-3.54-5L753.34,1483a9.84,9.84,0,0,0-4.56-5.59v132.37a7.93,7.93,0,0,1,2.54,2L788,1655.13c3.45,4.08,7.48,3,6.82-1.75l-7-50.89c-.26-1.9.24-3.39,1.35-4Z"/><ellipse class="cls-17" cx="260.39" cy="1028.42" rx="86.14" ry="149.21" transform="translate(-483.44 272) rotate(-30.31)"/><path class="cls-127" d="M307.9,1168.19c-15.49,0-32.11-5.06-49.4-15-59.41-34.3-107.73-117.66-107.73-185.84,0-47.79,24.38-78.66,62.12-78.66,15.48,0,32.11,5.06,49.4,15C321.69,938,370,1021.35,370,1089.52,370,1137.31,345.63,1168.19,307.9,1168.19Zm-95-272c-33.65,0-54.55,27.24-54.55,71.09,0,65.76,46.63,146.19,104,179.28,16.12,9.31,31.47,14,45.61,14,33.64,0,54.54-27.24,54.54-71.09,0-65.76-46.63-146.18-103.94-179.27C242.38,900.94,227,896.22,212.89,896.22Z"/><path class="cls-128" d="M207.75,993.34a49.75,49.75,0,0,1-7.78-24c-.13-2.41-.18-5.52-.18-9.36,0-4.11.05-7.37.18-9.76.46-8.22,3-13.5,7.51-15.81s10.93-1.09,19.18,3.67a52.94,52.94,0,0,1,19.25,18.51,52.2,52.2,0,0,1,7.61,24.55q.36,7.61.36,10.08,0,2.26-.36,9-.72,11.92-7.79,15t-19.07-3.83A53.47,53.47,0,0,1,207.75,993.34Zm1.53,78.48a6.69,6.69,0,0,1-1.07-3.6,2.27,2.27,0,0,1,.71-1.85l88.31-82.63a5.74,5.74,0,0,1,2.69-1.42,6,6,0,0,1,3.59,1.13l9.49,5.48a7.53,7.53,0,0,1,2.77,2.75,6.91,6.91,0,0,1,1,3.54,2.3,2.3,0,0,1-.71,1.85l-88.31,82.62a4.29,4.29,0,0,1-6.09.39l-9.5-5.48A7.86,7.86,0,0,1,209.28,1071.82Zm25-74.89c1.62-1.4,2.6-3.78,3-7.13.23-4.53.36-7.33.36-8.43,0-1.51-.13-4.38-.36-8.64a27.75,27.75,0,0,0-2.86-10.59,18.91,18.91,0,0,0-7.7-8c-3.36-1.94-5.86-2.19-7.53-.75s-2.63,3.86-2.87,7.28c-.11,2-.18,4.77-.18,8.33s.07,6.33.18,8.74A27.84,27.84,0,0,0,219,988a18.39,18.39,0,0,0,7.62,8C230.12,998,232.65,998.32,234.26,996.93Zm45.15,110.24a51.93,51.93,0,0,1-7.8-24.55c-.12-2.39-.17-5.51-.17-9.34,0-4,.05-7.16.17-9.57q.72-12.32,7.53-15.79t19.16,3.66a52.14,52.14,0,0,1,26.87,43.06c.25,5.07.37,8.35.37,9.87s-.12,4.52-.37,9c-.47,8.1-3.07,13.27-7.78,15.56s-11.08,1.1-19.09-3.52A52.5,52.5,0,0,1,279.41,1107.17Zm26.69,3.27c1.62-1.45,2.53-3.84,2.78-7.12.23-4.52.36-7.39.36-8.64s-.13-4.18-.36-8.43a27.77,27.77,0,0,0-2.87-10.59,18.84,18.84,0,0,0-7.71-8.05q-5-2.89-7.51-.74t-2.87,7.28q-.18,3-.18,8.12c0,3.57.06,6.56.18,9a27.42,27.42,0,0,0,2.78,10.33,18.37,18.37,0,0,0,7.6,8C301.89,1111.62,304.49,1111.91,306.1,1110.44Z"/><path class="cls-129" d="M316.75,995.22a6.91,6.91,0,0,0-1-3.54,7.53,7.53,0,0,0-2.77-2.75l-9.49-5.48a6.12,6.12,0,0,0-3.59-1.14,5.73,5.73,0,0,0-2.69,1.43l-36.14,33.81v30.93l55-51.41A2.3,2.3,0,0,0,316.75,995.22Zm8.42,99.42a52.14,52.14,0,0,0-26.87-43.06q-12.36-7.14-19.16-3.66t-7.53,15.79c-.12,2.41-.17,5.59-.17,9.57,0,3.83.05,6.94.17,9.34a51.93,51.93,0,0,0,7.8,24.55,52.58,52.58,0,0,0,18.89,18.41q12,6.93,19.09,3.52c4.71-2.29,7.31-7.46,7.78-15.56.25-4.51.36-7.52.36-9S325.42,1099.71,325.17,1094.64Zm-16.29,8.68c-.25,3.28-1.17,5.67-2.78,7.12s-4.21,1.18-7.8-.9a18.32,18.32,0,0,1-7.6-8,27.42,27.42,0,0,1-2.78-10.33c-.12-2.39-.18-5.38-.18-9s.06-6.13.18-8.12q.34-5.13,2.87-7.28t7.51.74a18.84,18.84,0,0,1,7.71,8.05,27.77,27.77,0,0,1,2.87,10.59c.23,4.25.36,7.07.36,8.43S309.11,1098.8,308.88,1103.32Z"/><path class="cls-130" d="M421.86,1307.5c-41.16-23.77-74.53-4.74-74.53,42.49s33.37,104.78,74.53,128.55,74.53,4.73,74.53-42.5S463,1331.26,421.86,1307.5Zm0,153.93c-32.93-19-59.62-65-59.62-102.84s26.69-53,59.62-34,59.62,65.05,59.62,102.84S454.79,1480.44,421.86,1461.43Zm0-119.73c-24.7-14.25-44.72-2.84-44.72,25.5s20,62.87,44.72,77.13,44.72,2.84,44.72-25.5S446.56,1356,421.86,1341.7Zm0,85.52c-16.46-9.5-29.81-32.52-29.81-51.41s13.35-26.51,29.81-17,29.81,32.53,29.81,51.42S438.32,1436.73,421.86,1427.22Zm0-51.31c-8.23-4.75-14.9-1-14.9,8.5s6.67,21,14.9,25.71,14.91,1,14.91-8.5S430.09,1380.67,421.86,1375.91Z"/><path class="cls-131" d="M436.77,1401.62c0-9.19-6.34-20.29-14.27-25.26v34.05C430.43,1414.6,436.77,1410.82,436.77,1401.62Z"/><path class="cls-132" d="M466.58,1418.83c0-28.09-19.68-62.24-44.08-76.72v17.14c16.16,9.73,29.17,32.34,29.17,51s-13,26.22-29.17,17.29v17.14C446.9,1458.35,466.58,1446.92,466.58,1418.83Z"/><path class="cls-133" d="M422.5,1307.9V1325c32.63,19.23,59,64.89,59,102.43s-26.35,52.77-59,34.32v17.11c40.86,23.19,73.89,4.16,73.89-42.83S463.36,1331.89,422.5,1307.9Z"/><ellipse class="cls-17" cx="763.13" cy="233.24" rx="21.6" ry="37.41" transform="translate(-13.4 417.03) rotate(-30.31)"/></g></g></g></svg>