<?xml version="1.0" encoding="utf-8"?>
<!-- Generator: Adobe Illustrator 25.1.0, SVG Export Plug-In . SVG Version: 6.00 Build 0)  -->
<svg version="1.1" id="Capa_1" xmlns="http://www.w3.org/2000/svg" xmlns:xlink="http://www.w3.org/1999/xlink" x="0px" y="0px"
	 viewBox="0 0 1828.1 576.2" style="enable-background:new 0 0 1828.1 576.2;" xml:space="preserve">
<style type="text/css">
	.st0{clip-path:url(#SVGID_2_);}
</style>
<g id="logo.psd">
	<defs>
		<rect id="SVGID_1_" x="19.5" y="-112.1" width="1758.2" height="780.6"/>
	</defs>
	<clipPath id="SVGID_2_">
		<use xlink:href="#SVGID_1_"  style="overflow:visible;"/>
	</clipPath>
	<g id="EngelDelgado_copia" class="st0">
		<g>
			<path d="M367.2,341.4c-1.5-1.5-2.8-1.7-4.1-0.7l-4.8,3c0.2,0-0.6,0.3-2.4,0.9c-1.9,0.6-3,1.2-3.5,1.7
				c-7.2,5.2-14.5,10.2-21.9,14.8c-7.4,4.7-14.7,9.2-21.9,13.4c-14.4,8.7-29.8,16.1-46.2,22.5c-16.5,6.3-33.5,11.6-51,15.8
				c-12.6,3.5-25.1,6.4-37.5,8.7c-12.4,2.4-24.6,3.9-36.8,4.6c-5.9,0.2-12.4,0.1-19.5-0.4c-7.1-0.5-13.7-1.6-19.9-3.3
				c-5.9-1.2-10.6-3.6-14.1-7.1c-3.5-3.5-6.2-7.7-8.2-12.6c-2-5.4-3-10.5-3-15.2c0-4.7,0.7-9.3,2.2-13.7c3.5-11.9,8.5-22.9,15.2-33
				c6.7-10.1,14.1-19.9,22.3-29.3h-0.4c6.4-7.2,13.6-14,21.5-20.6c7.9-6.6,15.8-13.1,23.8-19.5c10.1-7.2,20.7-13.7,31.7-19.7
				c11-5.9,22.3-11.1,34-15.6c10.1-4.2,20.3-7.7,30.4-10.6c10.1-2.8,20.5-4.5,31.2-5c5.4-0.5,9.8-1.1,13-1.9c2.7-0.2,4.9-1.2,6.7-3
				c1.7-1.7,2.6-3.8,2.6-6.3c-1-3-2.3-5-3.9-6.1c-1.6-1.1-3.7-1.7-6.1-1.7c-2.2,0-4.7,0.1-7.4,0.4c-2.7,0.2-5.1,0.6-7.1,1.1
				c-3,0-5.7,0.4-8.2,1.1h1.1l-3.7,0.7h-12.6c-2.5,0-4.9,0.1-7.2,0.2c-2.4,0.1-4.6,0.2-6.9,0.2c-4.2,0-8.4-0.1-12.4-0.4
				c-4.1-0.2-8.2-0.9-12.4-1.9c-5.2-0.7-10.3-1.6-15.2-2.6c-5-1-9.8-2.1-14.5-3.3h0.4c-5-1.5-9.9-3.3-14.8-5.4
				c-5-2.1-9.2-4.5-12.6-7.2c-5-4-7.4-8.9-7.4-14.8c0-3,0.9-6.1,2.6-9.3c1.2-2.2,2.5-4.3,3.9-6.3c1.4-2,2.8-3.6,4.3-4.8
				c7.2-7.2,14.6-13.9,22.3-20.2c7.7-6.3,16-11.9,24.9-16.9c18.8-10.4,38.9-19.3,60.3-26.7c21.4-7.4,43.4-11.1,65.9-11.1
				c3,0,6.2,0.1,9.7,0.2c3.5,0.1,6.8,0.4,10,0.9c2.2,0.5,4.2,1.1,5.9,1.7c1.7,0.6,3.6,1.4,5.6,2.4c1.5,0.7,2.8,0.7,3.9-0.2
				c1.1-0.9,1.5-2,1.3-3.5c-0.5-3.5-1.6-5.9-3.3-7.4c-1.7-1.5-3.6-2.5-5.6-3c-3.7-1.2-8.4-2.1-13.9-2.6c-5.6-0.5-11.7-0.7-18.4-0.7
				c-9.4,0-19.1,0.6-29,1.9c-9.9,1.2-19.3,3.2-28.2,5.9c-17.6,5.4-34.7,11.8-51.4,19.1c-16.7,7.3-32.6,16.5-47.7,27.7l-4.5,3.7
				c-5,4-9.6,8-13.9,12.3c-4.3,4.2-8.7,9.2-13.2,14.8c-4.7,7.9-7.1,15.2-7.1,21.9c0,5.7,1.3,11.1,3.9,16.3s6.7,9.9,12.4,14.1
				c4.2,2.7,8.9,5.2,14.1,7.4c5.2,2.2,10,3.7,14.5,4.5c5.4,1.5,11.2,2.9,17.3,4.3c6.1,1.4,12.3,2.7,18.7,3.9l-11.1,4.5
				c-5,2-10,4-15,6.1c-5.1,2.1-9.3,4.3-12.8,6.5c-9.7,5.2-19.1,11.1-28.4,17.8c-9.3,6.7-18.3,13.6-26.9,20.8
				c-11.6,9.7-22.3,20.2-31.9,31.7c-9.7,11.5-18.1,23.7-25.2,36.6c-2.5,4.2-4.5,8.5-6.1,12.8c-1.6,4.3-3.2,8.9-4.6,13.5h0.4
				c-2.2,5.7-3.3,11.4-3.3,17.1c0,4.5,0.4,8.3,1.1,11.5c2.7,10.6,6.9,19.2,12.6,25.8c5.7,6.6,13.6,11.4,23.8,14.7
				c4.2,1.2,8.6,2,13.2,2.4c4.6,0.4,9.1,0.8,13.5,1.3h0.4c43.1-1.5,83.5-8.6,121.2-21.3c37.7-12.7,74.2-32.7,109.3-60
				c2.7-2.2,5.5-4.5,8.4-6.9c2.8-2.3,5.8-4.8,8.7-7.2C370.7,345.1,370.5,343.1,367.2,341.4z M745.5,232.6l7.8-11.5
				c1.7-2.2,1.2-4.1-1.5-5.6c-1.7-1.2-3.3-1.2-4.8,0c-14.4,14.4-26.6,28.6-36.8,42.9c-10.2,14.2-18.6,30.1-25.2,47.7l1.1-5.6
				c1.7-11.1,3.5-22.2,5.4-33.2c1.9-11,3.8-22,5.8-32.9c2.2-11.6,4.7-23.2,7.4-34.7c2.7-11.5,5.4-23.1,8.2-34.7
				c2.5-9.4,5-19.8,7.6-31.2c2.6-11.4,4.9-22,6.9-31.9c1.2-5.7,2.3-11.4,3.2-17.3c0.9-5.8,1.9-11.7,3.2-17.6l5.2-27.5
				c0.2-1.7-0.1-3.2-1.1-4.5c-1-1.2-2.2-2.1-3.5-2.6c-1.4-0.5-2.7-0.5-4.1,0c-1.4,0.5-2.4,1.6-3.2,3.3c-0.5,1-0.8,2.4-0.9,4.1
				c-0.1,1.7-0.3,3.2-0.6,4.5l-1.5,5.9c-3,13.9-6,28-9.1,42.3c-3.1,14.4-6.4,28.5-9.8,42.3c-2.7,11.9-5.6,24.3-8.5,37.1
				c-3,12.9-5.8,25.5-8.5,37.9c-0.2,0.8-0.4,1.7-0.6,2.5c-1.6,1.1-3.1,2.3-4.4,3.6c-1.6,1.6-3.4,3-5.4,4.3
				c-7.2,6.4-14.7,12.6-22.5,18.6c-7.8,5.9-16.3,11-25.4,15.2c-2.7,2-5.8,3.7-9.3,5c-3.5,1.4-6.8,2.4-10,3.2c-1.7,0-3.2-1.1-4.5-3.3
				c0-1.7,0.2-3.6,0.7-5.6c0.5-2,1.4-3.6,2.6-4.8c4.7-4.7,9.2-9.7,13.4-15c4.2-5.3,8.2-10.7,11.9-16.1l2.6-3.3
				c1.7-2.7,3.4-5.6,5-8.5c1.6-3,3-6.2,4.3-9.7v0.4c0.5-1.2,0.7-2.8,0.6-4.8c-0.1-2-0.4-3.6-0.9-4.8c-1-0.7-2.5-1.4-4.6-1.9
				c-2.1-0.5-3.8-0.7-5-0.7c-0.2,0-0.6,0.1-0.9,0.4c-0.4,0.2-0.7,0.4-0.9,0.4c-2.2,1.2-4.3,2.4-6.3,3.5c-2,1.1-3.6,2.3-4.8,3.5
				l0.7-0.4c-5.9,5-11.1,10.6-15.6,17.1c-0.7,1-1.4,2-2,3l-1,0.7l0.4-0.4c-0.7,0.5-1.6,1.1-2.6,1.9c-1,0.7-2.1,1.5-3.3,2.2
				c-5,3.7-10.1,7.6-15.4,11.5c-5.3,4-10.2,7.9-14.7,11.9v-23.8c0-2,0.1-4,0.2-6.1c0.1-2.1,0.6-4.1,1.3-6.1c0-0.5-0.6-1.5-1.7-3.2
				c-1.1-1.6-2.2-2.7-3.2-3.2l1.9,0.4c-3.2-2-5.7-2.2-7.4-0.7c-1.7,1.5-3.2,3.8-4.5,7.1c0,2.5-1,4.7-3,6.7
				c-5.4,5.9-11.1,11.9-16.9,17.8c-5.8,5.9-11.7,11.8-17.6,17.4c-1,1.5-2.2,2.7-3.7,3.7c-1.5,1-2.8,1.7-4.1,2.2h0.7l-1.9,1.1
				c0.5-1.5,1-3,1.7-4.6c0.6-1.6,1.2-3,1.7-4.3v0.4c4-7.4,8.7-14.1,14.1-20c5.4-5.9,11.5-11.4,18.2-16.3l1.5-1.1l3.3-1.9
				c0.7-1,1.4-2.3,1.9-4.1c0.5-1.7,0.6-3.2,0.4-4.5c-0.2-2-1.2-3.2-3-3.7c-1.7-0.5-3.2-0.7-4.5-0.7c-3.2,1.2-5.7,2.3-7.4,3.2
				c-1.7,0.9-3.2,1.5-4.5,2c-5.2,4.2-10.2,8.9-15,13.9c-1.4,1.4-2.7,2.9-4.1,4.5c-1.3-1-2.4-1.1-3.5-0.2l-3,1.9
				c-1.2,1-2.6,2-4.1,3.2c-1.5,1.1-2.8,2.3-4.1,3.5l-4.1,3c-5.4,4.2-10.9,8.5-16.3,13c-5.4,4.5-10.6,9.2-15.6,14.1
				c-4.7,4.2-9.5,8.2-14.3,12.1c-4.8,3.8-9.8,7.5-15,11c-0.7,0.5-1.4,0.9-1.9,1.3c-0.5,0.4-1.1,0.6-1.9,0.6c-0.5-1-0.7-1.6-0.7-1.9
				v-11c0-3.8,0.2-7.6,0.7-11.3l1.1-10.8c0.5-3.5,0.9-7.1,1.3-10.8c0.4-3.7,0.7-7.3,0.9-10.8c0.2-6.4-1.4-10.8-4.8-13.2
				c-3.5-2.3-8-2.3-13.7,0.2c-4,2-7.7,4.1-11.3,6.3c-3.6,2.2-7,4.7-10.2,7.4l-7.1,6.3v-2.6l1.5-9.3v0.4l1.5-10.8
				c0-1.5-0.2-3.3-0.7-5.4c-0.5-2.1-2.4-3.2-5.6-3.2c-0.5,0-1.4,0.4-2.6,1.3c-1.2,0.9-2.4,1.8-3.3,2.8c-1.2,0.5-1.9,1.1-1.9,1.9v2.2
				c-0.5,0.7-0.9,1.5-1.1,2.2c-0.2,0.7-0.4,1.7-0.4,3c-1.2,4.5-2.2,9-3,13.5c-0.7,4.6-1.6,9.2-2.6,13.9l-2.6,15.2c0,2,0.2,4,0.7,6.1
				c0.5,2.1,2.1,3.7,4.8,4.6c2.2,1.2,4.3,1.1,6.3-0.4c2-1.5,3.6-3.1,4.8-4.8c2.5-5.2,5.6-9.9,9.5-14.1c3.8-4.2,8-8.2,12.4-11.9
				c2.2-2,4.3-3.8,6.3-5.4c2-1.6,4.2-2.9,6.7-3.9c-0.7,4-1.3,7.9-1.7,11.7c-0.4,3.8-0.7,7.5-0.9,11c-0.5,5.4-0.9,10.8-1.3,16.1
				c-0.4,5.3-0.6,10.6-0.6,15.8c0.5,6.7,2.8,11.3,7.1,13.7c4.2,2.5,9.5,2.6,16,0.4c1.7,0,3.2-0.5,4.5-1.5c2-1.5,3.9-2.8,5.8-4.1
				c1.9-1.2,3.8-2.6,5.8-4.1c3.2-2.2,6.6-4.6,10.2-7.2c3.6-2.6,5.6-4.3,6.1-5c5.9-5.4,12.1-11.3,18.4-17.4c2.9-2.9,6-6,9-9.2
				c-1.2,3.3-2.2,6.5-2.9,9.6c-0.7,6.4,0.5,11.1,3.7,14.1c3.2,3,7.9,3.5,14.1,1.5h-1.1l1.5-0.4c1.2,0,2.3-0.5,3.3-1.5
				c1-1,2.2-1.9,3.7-2.8c1.5-0.9,2.8-1.8,4.1-2.8c2-1.2,4.1-2.7,6.3-4.3c2.2-1.6,4.3-3.4,6.3-5.4c6.7-6.7,12.9-13.6,18.6-20.8
				l2.2-2.6v4.8l-0.7,15.6c0,2.2-0.9,4.2-2.6,5.9l-7.8,9.7l-11.1,13.7c-5.9,7.4-11.4,15-16.3,22.6c-5,7.7-9.8,15.6-14.5,23.8h0.4
				c-5.7,8.9-10.6,17.8-14.7,26.5c-4.1,8.8-7.9,17.6-11.3,26.5c-1.2,4.5-2.2,9-3,13.7c-0.7,4.7-1.1,10.3-1.1,16.7
				c0,5,1.3,9.5,3.9,13.5c2.6,4.1,6.4,7.1,11.3,9.1c4.5,2,9,2.7,13.7,2.2c4.7-0.5,9-2.5,13-5.9c3.5-3.2,6.7-6.7,9.8-10.6
				c3.1-3.8,5.6-7.9,7.6-12.1v0.4c7.4-13.4,13.1-26.9,17.1-40.6c4-13.7,7.4-27.8,10.4-42.1c2-10.4,3.7-20.7,5.2-30.8
				c1.5-10.1,2.8-20.3,4.1-30.4c0-1.7,1.5-4.3,4.6-7.6c3.1-3.3,6.8-6.9,11.1-10.8c3.3-2.9,6.8-5.8,10.4-8.6
				c-0.9,2.3-1.7,4.6-2.6,6.9c-1.6,4.5-2.8,8.7-3.5,12.6c-0.7,4.5-0.6,8.5,0.6,12.3c1.1,3.7,3,6.7,5.6,9.1c2.6,2.4,5.8,3.9,9.7,4.6
				s7.9,0.4,12.1-1.1l3.7-1.9c4.9-2,9.7-4,14.3-6.1c4.6-2.1,8.6-4.4,12.1-6.9c6.4-4.9,12.7-10.1,18.7-15.6
				c5.8-5.2,11.4-10.3,16.9-15.3c-0.5,2.4-1,4.8-1.5,7.3c-2.2,11-4.4,22.2-6.5,33.6c-2.1,11.4-4.1,22.7-5.9,34
				c-1.9,11.3-3.4,22-4.6,32.1c-0.7,5-1.3,10.2-1.7,15.6c-0.4,5.4-0.6,10.8-0.6,16c0,2.7,0.1,5.5,0.2,8.4c0.1,2.8,0.3,5.8,0.6,8.7
				c0.5,5,1.2,10,2.2,15.2c0.7,2,2,3.5,3.9,4.6c1.9,1.1,3.9,1.7,6.1,1.7c2.5-0.5,4.2-1.5,5.2-3c1-1.5,1.9-3.2,2.6-5.2
				c0-1,0.1-2,0.2-3c0.1-1,0.2-1.9,0.2-2.6v-4.8c0.5-13.4,2.2-26.6,5.2-39.7c3-13.1,6.6-26,10.8-38.6c2-5.2,3.8-9.6,5.4-13.2
				c1.6-3.6,3.8-7.9,6.5-12.8l3.7-8.2v0.4c3.5-6.2,7-12.1,10.6-17.6c3.6-5.6,7.1-11,10.6-16.1c1.5-2.2,3-4.5,4.6-6.9
				C742.1,237.1,743.8,234.8,745.5,232.6z M551.4,282.7l-1.5,12.6c-1,7.9-2.6,16.5-4.8,25.6c-2.7,13.4-6.1,26.6-10.2,39.7
				c-4.1,13.1-9.5,26-16.1,38.6c-2,3.5-4,6.5-6.1,9.1c-2.1,2.6-4.6,5.3-7.6,8c-1.2,1.2-2.9,2-5,2.4c-2.1,0.4-4.1-0.1-6.1-1.3
				c-1.7-0.5-3.1-1.5-4.1-3.2c-1-1.6-1.5-3.3-1.5-5c0.5-1.2,0.8-2.9,0.9-5c0.1-2.1,0.3-3.8,0.6-5c0.5-3.5,1.1-6.9,1.7-10.4
				c0.6-3.5,1.2-5.7,1.7-6.7c2.7-8.7,6-17.1,9.8-25.2c3.8-8.2,8.2-16.2,13.2-24.1c4.9-8.7,10.1-17,15.6-25.1
				c5.4-8,11-15.8,16.7-23.2l3-4.8V282.7z M1108.9,169.1c0.5-3.5,0.7-7.3,0.7-11.5c0-10.6-2.1-20.5-6.3-29.7
				c-4.2-9.2-10.4-17.9-18.6-26.4c-6.9-6.4-14.2-12-21.7-16.7c-7.6-4.7-15.5-8.8-23.9-12.3c-16.3-6.4-32.2-10.4-47.5-11.9
				c-11.1-1.5-22.8-2.2-34.9-2.2c-38.9,0-76.6,8.8-113.2,26.4C825,94.2,807.4,105.6,791,119c-16.5,13.4-30.8,28.3-42.9,44.9
				c-0.5,0.7-1.2,1.6-2,2.6c-0.9,1-1.5,2.1-2,3.3l-2.2,4.1c-0.7,0.7-1,1.6-0.9,2.6c0.1,1,0.4,1.9,0.9,2.6c0.2,0.5,0.9,0.9,1.9,1.1
				c1,0.2,1.5,0.6,1.5,1.1c2-2,4.3-3.8,7.1-5.6c2.7-1.7,4.9-3.6,6.7-5.6c2-2.7,4-5.1,5.9-7.2c2-2.1,4.1-4.4,6.3-6.9
				c14.1-16.8,30.2-30.8,48.3-41.9c18.1-11.1,37.1-20.4,57.2-27.8c10.9-4.2,22-7.5,33.2-10c11.3-2.5,23.2-3.7,35.8-3.7
				c13.1-0.5,26.4,0,39.7,1.5c13.4,1.5,26.6,4.5,39.7,8.9c21.8,6.4,40.3,18.3,55.7,35.6v-0.4c4.9,5.9,8.5,12.3,10.6,18.9
				c2.1,6.7,3,13.5,2.8,20.4c-0.5,5.2-1.4,10.3-2.6,15.2c-1.2,5-2.6,9.8-4.1,14.5c-2.7,6.9-6.3,13.9-10.6,20.8
				c-4.3,6.9-9,13.6-13.9,20c-7.4,10.2-15.5,20.2-24.3,30.1c-8.8,9.9-17.9,19.2-27.3,27.8v-0.4l-7.4,7.4
				c-10.9,10.2-21.8,20-32.7,29.7c-10.9,9.7-22.4,18.9-34.5,27.8c-10.4,7.7-21.5,15-33.2,21.9c-11.8,6.9-23.9,13.9-36.6,20.8
				c-10.4,6.4-21.2,11.6-32.3,15.4c-11.1,3.8-22.6,7-34.5,9.5c-5.4,1.7-11.9,1.9-19.3,0.4c-12.6-1-19.9-8.2-21.9-21.5
				c-1.2-5.2-1.4-10.5-0.6-15.8c0.9-5.3,2-10.5,3.5-15.4c3.5-10.4,7.9-21,13.2-31.7c5.3-10.8,10.6-20.5,15.8-29.1
				c5.7-8.7,11.4-17.3,17.3-26c5.8-8.7,12.2-16.6,19.1-23.8l8.2-8.5H835c8.4-9.2,17-18.4,25.8-27.7c8.8-9.3,18.7-18.6,29.9-28
				c4.2-3.7,8.4-7.5,12.4-11.3c4.1-3.8,8.5-7.6,13.2-11.3l10-8.5L923,178l-3.3,18.6c-1.5,7.9-2.8,16-3.9,24.1
				c-1.1,8.2-2.3,16.5-3.5,24.9l-2.6,16.3c-1,5.4-1.8,10.9-2.4,16.3c-0.6,5.4-1.2,10.9-1.7,16.3l-1.5,10.8v1.1
				c-0.2,1.5-0.2,3,0.2,4.5c0.4,1.5,1.3,2.7,2.8,3.7c1.7,1,3.2,0.6,4.5-1.1c1-1.5,1.7-3.3,2.2-5.6l3.3-12.6
				c3.2-12.1,6.4-25.1,9.7-39c3.2-13.9,5.8-27.3,7.8-40.5c1.2-7.2,2.4-14.2,3.5-21c1.1-6.8,2.3-13.7,3.5-20.6c0.7-4,1.4-7.7,2-11.3
				c0.6-3.6,1.2-7.4,1.7-11.3c0.7-2.2,1.1-4.1,1.1-5.6c0-2-0.2-4.1-0.6-6.5c-0.4-2.3-1.8-4.1-4.3-5.4c-2.2-0.7-4.3-0.9-6.3-0.6
				c-2,0.4-3.7,0.9-5.2,1.7l1.1-0.3c0,0-0.1,0-0.1,0.1c-0.1,0.1-0.3,0.2-0.6,0.2c-1.5,0-2.8,0.4-3.9,1.1c-1.1,0.7-2.2,1.6-3.2,2.6
				v-0.4l-34.2,29.7h0.4c-11.6,9.9-22.6,20-32.9,30.3c-10.3,10.3-20.6,21-31,32.1l-4.1,4.5c-6.4,7.2-12.6,14.4-18.6,21.7
				c-5.9,7.3-11.6,14.8-17.1,22.5c-2.5,4.2-4.9,8.4-7.2,12.4c-2.4,4.1-4.8,8.2-7.2,12.4h0.4c-2.2,3.5-4.3,6.6-6.1,9.5
				c-1.9,2.8-3,4.8-3.5,5.8c-4.5,8.2-8.4,16.6-11.7,25.2c-3.3,8.7-6.1,17.3-8.4,26c-0.5,3-0.9,5.9-1.3,8.9c-0.4,3-0.6,6.1-0.6,9.3
				c0,3.5,0.2,6.8,0.7,10c0.5,3.2,1.4,6.6,2.6,10c2.2,6.2,5.4,11.4,9.5,15.6c4.1,4.2,9.3,7.4,15.8,9.7c4.2,1.2,8.4,2.1,12.4,2.6
				c4.1,0.5,8.1,0.5,12.1,0c10.1-1.2,19.9-3.3,29.1-6.1c9.3-2.8,18.5-6.1,27.7-9.8h-0.4c6.2-2.2,11.9-4.8,17.3-7.6
				c5.3-2.8,10.5-5.6,15.4-8.4c2.7-1.5,5.2-3,7.4-4.5c2.2-1.5,4.6-2.8,7.1-4.1c11.9-6.7,23.4-14,34.7-21.9
				c11.3-7.9,22.1-16.1,32.5-24.5c10.4-8.2,20.4-16.7,30.1-25.6c9.7-8.9,19.2-17.8,28.6-26.7l22.3-21.2c0.2-1,1.4-2,3.3-3
				c3.2-4.5,6.6-9.2,10.2-14.1c3.6-4.9,7.4-9.8,11.3-14.5l7.8-10c5.9-7.9,11.3-16.4,16.1-25.4c4.8-9,9.2-19.4,13.2-31
				C1107.8,175.7,1108.4,172.6,1108.9,169.1z M1742.2,207.7c-0.2-1.5-1-2.5-2.2-3.2c-1.2-0.6-2.5-0.4-3.7,0.6
				c-8.7,6.4-17.4,11.7-26.2,15.8c-8.8,4.1-18.5,7.1-29.1,9.1c1-3,1.5-6.4,1.5-10.4c0-7.9-2.8-15-8.4-21.3
				c-5.6-6.3-13.2-9.5-22.8-9.5c-4.2,0-8.1,0.6-11.7,1.7c-3.6,1.1-7,2.5-10.2,4.3c-2.7,1.5-5.1,3.5-7.1,5.9c-2,2.5-3.6,5.2-4.8,8.2
				c-1.2,3-2,6.1-2.2,9.3c-0.1,1.4-0.1,2.7,0,4.1c-0.3,0.2-0.5,0.5-0.8,0.8c-11.4,20.5-21.2,40.2-29.3,58.8
				c-8.2,18.7-15,38.8-20.4,60.3c0.5-14.1,1.3-28.1,2.4-41.9c1.1-13.9,3-27.8,5.8-41.9l4.1-29.3c1.5-10.1,3-20.1,4.6-29.9
				c1.6-9.8,3.4-19.7,5.4-29.9c1.7-8.4,3.6-16.8,5.8-25.1c2.1-8.3,4.1-16.6,6.1-25.1c0.7-3.5,1.6-6.8,2.6-10c1-3.2,1.9-6.6,2.6-10
				c0.5-1.7,0.9-3.5,1.3-5.4c0.4-1.9,0.8-4,1.3-6.5l1.5-6.3l-0.4,0.4c0.5-1.5,0.6-2.6,0.4-3.3c-0.2-0.7-0.7-1.6-1.5-2.6l0.7,1.9
				l-0.7-1.1c0-1.5-0.7-2.5-2-3.2c-1.3-0.6-2.6-0.3-3.8,0.9c-1,0.3-1.9,0.4-2.7,0.4c-1,0-1.6,0.9-1.9,2.6c-0.7,1.2-1.4,2.8-2,4.6
				c-0.6,1.9-1.3,3.7-2,5.4l-11.5,42.3c-3.2,12.1-6,24.9-8.4,38.4c-2.4,13.5-4.5,26.8-6.5,39.9V207l-1.1,7.4c-0.5,3.5-1.5,6.7-3,9.8
				c-1.5,3.1-3.1,6.3-4.8,9.5c-0.2-2-0.4-3.8-0.6-5.6c-0.1-1.7-0.4-3.6-0.9-5.6c-0.7-3.2-1.7-6.7-2.8-10.4c-1.1-3.7-2.4-7.1-3.9-10
				c-2.5-5.7-6.1-9-11-10c-4.8-1-9.6,0.5-14.3,4.5c-1.2,1.2-2.5,2.8-3.7,4.6c-1.2,1.9-2.5,3.5-3.7,5c-2.4,3.3-4.6,6.7-6.6,10.4
				c-0.6,0.3-1.1,0.7-1.6,1.2c-1.5,1.5-3.3,3-5.4,4.5c-2.1,1.5-3.9,2.8-5.4,4.1c-2,1.5-3.9,3-5.8,4.6c-1.9,1.6-3.7,3-5.4,4.3
				c-10.2,8.4-20.6,15.8-31.4,22.3c-10.8,6.4-21.3,12.5-31.7,18.2c-1,0.5-2.2,0.9-3.7,1.3c-1.5,0.4-3,0.7-4.5,0.9
				c-2.7,0.2-4.2-0.6-4.5-2.6c-0.5-2.7-0.7-5.1-0.7-7.2c0-2.1,0.2-4.3,0.7-6.5c1.5-6.7,2.9-13.4,4.3-20.2c1.4-6.8,2.9-13.4,4.6-19.9
				v0.4c0.7-2.7,1.5-5.5,2.2-8.4c0.7-2.8,1.4-5.6,1.9-8.4c0.7-2.5,1-4.8,0.7-6.9c-0.2-2.1-0.9-3.8-1.9-5c-1.7-2-3.8-3-6.1-3.2
				c-2.4-0.1-4.6,0.6-6.9,2c-1,0.7-2,1.9-3,3.3c-1.7-1.2-4.2-1.9-7.4-1.9c-8.2-0.2-15.7,2-22.5,6.7c-3.2,2.2-6.2,4.7-9.1,7.4
				c-0.2-0.2-0.5-0.4-0.8-0.5c-1.2-0.6-2.5-0.4-3.7,0.6l-3.3,2.2l0.4-0.4l-3.7,2.6l0.4-0.4c-0.7,0.5-1.6,1.1-2.6,1.9
				c-1,0.7-2.1,1.5-3.3,2.2c-5,3.7-10.1,7.6-15.4,11.5c-5.3,4-10.2,7.9-14.7,11.9v-23.8c0-2,0.1-4,0.2-6.1c0.1-2.1,0.6-4.1,1.3-6.1
				c0-0.5-0.6-1.5-1.7-3.2c-1.1-1.6-2.2-2.7-3.2-3.2l1.9,0.4c-3.2-2-5.7-2.2-7.4-0.7c-1.7,1.5-3.2,3.8-4.5,7.1c0,2.5-1,4.7-3,6.7
				c-5.4,5.9-11.1,11.9-16.9,17.8c-5.8,5.9-11.7,11.8-17.6,17.4c-1,1.5-2.2,2.7-3.7,3.7c-1.5,1-2.8,1.7-4.1,2.2h0.7l-1.9,1.1
				c0.5-1.5,1-3,1.7-4.6c0.6-1.6,1.2-3,1.7-4.3v0.4c4-7.4,8.7-14.1,14.1-20c5.4-5.9,11.5-11.4,18.2-16.3l1.5-1.1l3.3-1.9
				c0.7-1,1.4-2.3,1.9-4.1c0.5-1.7,0.6-3.2,0.4-4.5c-0.2-2-1.2-3.2-3-3.7c-1.7-0.5-3.2-0.7-4.5-0.7c-3.2,1.2-5.7,2.3-7.4,3.2
				c-1.7,0.9-3.2,1.5-4.5,2c-5.2,4.2-10.2,8.9-15,13.9c-1.2,1.3-2.5,2.7-3.7,4c-0.3,0.1-0.6,0.3-0.9,0.6
				c-14.4,14.4-26.6,28.6-36.8,42.9c-10.2,14.2-18.6,30.1-25.2,47.7l1.1-5.6c1.7-11.1,3.5-22.2,5.4-33.2c1.9-11,3.8-22,5.8-32.9
				c2.2-11.6,4.7-23.2,7.4-34.7c2.7-11.5,5.4-23.1,8.2-34.7c2.5-9.4,5-19.8,7.6-31.2c2.6-11.4,4.9-22,6.9-31.9
				c1.2-5.7,2.3-11.4,3.2-17.3c0.9-5.8,1.9-11.7,3.2-17.6l5.2-27.5c0.2-1.7-0.1-3.2-1.1-4.5c-1-1.2-2.2-2.1-3.5-2.6
				c-1.4-0.5-2.7-0.5-4.1,0c-1.4,0.5-2.4,1.6-3.2,3.3c-0.5,1-0.8,2.4-0.9,4.1c-0.1,1.7-0.3,3.2-0.6,4.5l-1.5,5.9
				c-3,13.9-6,28-9.1,42.3c-3.1,14.4-6.4,28.5-9.8,42.3c-2.7,11.9-5.6,24.3-8.5,37.1c-3,12.9-5.8,25.5-8.5,37.9
				c-0.2,0.8-0.4,1.7-0.6,2.5c-1.6,1.1-3.1,2.3-4.4,3.6c-1.6,1.6-3.4,3-5.4,4.3c-7.2,6.4-14.7,12.6-22.5,18.6s-16.3,11-25.4,15.2
				c-2.7,2-5.8,3.7-9.3,5c-3.5,1.4-6.8,2.4-10,3.2c-1.7,0-3.2-1.1-4.5-3.3c0-1.7,0.2-3.6,0.7-5.6c0.5-2,1.4-3.6,2.6-4.8
				c4.7-4.7,9.2-9.7,13.4-15c4.2-5.3,8.2-10.7,11.9-16.1l2.6-3.3c1.7-2.7,3.4-5.6,5-8.5c1.6-3,3-6.2,4.3-9.7v0.4
				c0.5-1.2,0.7-2.8,0.6-4.8c-0.1-2-0.4-3.6-0.9-4.8c-1-0.7-2.5-1.4-4.6-1.9c-2.1-0.5-3.8-0.7-5-0.7c-0.2,0-0.6,0.1-0.9,0.4
				c-0.4,0.2-0.7,0.4-0.9,0.4c-2.2,1.2-4.3,2.4-6.3,3.5c-2,1.1-3.6,2.3-4.8,3.5l0.7-0.4c-5.9,5-11.1,10.6-15.6,17.1
				c-4.5,6.4-8,13.2-10.8,20.4c-1.7,4.2-3.4,8.5-5,13c-1.6,4.5-2.8,8.7-3.5,12.6c-0.7,4.5-0.6,8.5,0.6,12.3s3,6.7,5.6,9.1
				c2.6,2.4,5.8,3.9,9.7,4.6c3.8,0.7,7.9,0.4,12.1-1.1l3.7-1.9c4.9-2,9.7-4,14.3-6.1c4.6-2.1,8.6-4.4,12.1-6.9
				c6.4-4.9,12.7-10.1,18.7-15.6c5.8-5.2,11.4-10.3,16.9-15.3c-0.5,2.4-1,4.8-1.5,7.3c-2.2,11-4.4,22.2-6.5,33.6
				c-2.1,11.4-4.1,22.7-5.9,34c-1.9,11.3-3.4,22-4.6,32.1c-0.7,5-1.3,10.2-1.7,15.6c-0.4,5.4-0.6,10.8-0.6,16c0,2.7,0.1,5.5,0.2,8.4
				c0.1,2.8,0.3,5.8,0.6,8.7c0.5,5,1.2,10,2.2,15.2c0.7,2,2,3.5,3.9,4.6c1.9,1.1,3.9,1.7,6.1,1.7c2.5-0.5,4.2-1.5,5.2-3
				c1-1.5,1.9-3.2,2.6-5.2c0-1,0.1-2,0.2-3c0.1-1,0.2-1.9,0.2-2.6v-4.8c0.5-13.4,2.2-26.6,5.2-39.7c3-13.1,6.6-26,10.8-38.6
				c2-5.2,3.8-9.6,5.4-13.2c1.6-3.6,3.8-7.9,6.5-12.8l3.7-8.2v0.4c3.5-6.2,7-12.1,10.6-17.6c0.3-0.5,0.6-1,0.9-1.4
				c0.5,3.2,1.7,5.7,3.7,7.6c3.2,3,7.9,3.5,14.1,1.5h-1.1l1.5-0.4c1.2,0,2.3-0.5,3.3-1.5c1-1,2.2-1.9,3.7-2.8
				c1.5-0.9,2.8-1.8,4.1-2.8c2-1.2,4.1-2.7,6.3-4.3c2.2-1.6,4.3-3.4,6.3-5.4c6.7-6.7,12.9-13.6,18.6-20.8l2.2-2.6v4.8l-0.7,15.6
				c0,2.2-0.9,4.2-2.6,5.9l-7.8,9.7l-11.1,13.7c-5.9,7.4-11.4,15-16.3,22.6c-5,7.7-9.8,15.6-14.5,23.8h0.4
				c-5.7,8.9-10.6,17.8-14.7,26.5c-4.1,8.8-7.9,17.6-11.3,26.5c-1.2,4.5-2.2,9-3,13.7c-0.7,4.7-1.1,10.3-1.1,16.7
				c0,5,1.3,9.5,3.9,13.5c2.6,4.1,6.4,7.1,11.3,9.1c4.5,2,9,2.7,13.7,2.2c4.7-0.5,9-2.5,13-5.9c3.5-3.2,6.7-6.7,9.8-10.6
				c3.1-3.8,5.6-7.9,7.6-12.1v0.4c7.4-13.4,13.1-26.9,17.1-40.6c4-13.7,7.4-27.8,10.4-42.1c2-10.4,3.7-20.7,5.2-30.8
				c1.5-10.1,2.8-20.3,4.1-30.4c0-1.7,1.5-4.3,4.6-7.6c3.1-3.3,6.8-6.9,11.1-10.8c4.3-3.8,8.9-7.5,13.7-11.1
				c0.4-0.3,0.7-0.5,1.1-0.8c-1.2,2.6-2.3,5.2-3.3,7.9c-2.8,7.8-4.5,14.7-5,20.6c-0.5,6.4,0.6,11.3,3.3,14.5
				c2.7,3.2,7.3,3.6,13.7,1.1c2.5-1,4.5-1.9,5.9-2.8c1.5-0.9,3-1.8,4.5-2.8l1.9-1.5l-0.4,0.4c4.9-3.7,9.7-7.5,14.1-11.5
				c4.5-4,8.7-8.3,12.6-13c-0.5,1.5-0.9,3-1.1,4.6c-0.2,1.6-0.5,3.5-0.7,5.8c-1.2,7.4-1.6,15.6-1.1,24.5c0.5,5,2.5,8.8,5.9,11.5
				c3.5,2.7,7.7,3.8,12.6,3.3c2.5-0.2,5.1-0.6,8-1.1c2.8-0.5,5.8-1.6,8.7-3.3l3.3-1.9v0.4c4.5-2.5,9-5,13.5-7.6
				c4.6-2.6,9.3-5.8,14.3-9.5v0.4c9.9-5.7,19.2-12.7,27.8-21c4.2-4.1,8.3-8.2,12.3-12.5c-0.1,0.5-0.3,1-0.4,1.5
				c-0.7,3.2-1.4,6.4-1.9,9.5c-0.5,3.1-0.7,6.5-0.7,10.2c0,2.5,0.1,4.7,0.4,6.7c0.2,2,0.6,3.8,1.1,5.6c2.2,6.9,4.2,11.6,5.9,14.1
				c7.2,8.7,15,10.3,23.4,4.8h-0.4c3.5-1.5,6.6-3.6,9.3-6.3c3.5-3.5,6.7-7.1,9.8-10.8c3.1-3.7,6-7.7,8.7-11.9l-1.1,8.9v-0.4
				c-1.2,7.9-2.5,16.1-3.7,24.5c-1.2,8.4-1.9,15.5-1.9,21.2c0,4.7-0.1,9.7-0.2,15c-0.1,5.3-0.3,11.1-0.6,17.3
				c-0.2,6.9-0.4,13.8-0.6,20.6c-0.1,6.8-0.2,13.4-0.2,19.9c0,6.4,0.2,12.4,0.6,17.8c0.4,5.4,1,10.1,1.9,13.9
				c0.9,3.8,2.2,6.7,3.9,8.7c1.7,2,4,2.7,6.7,2.2l3-3.3c1.7-19.1,4.4-36.9,8-53.5c3.6-16.6,7.9-32.8,12.8-48.6
				c4.9-15.8,10.7-31.6,17.3-47.3c1.8-4.2,3.6-8.5,5.4-12.9c0.6,3.5,2,6.9,4.1,10.1c3.5,5,9.4,7.1,17.8,6.3c4-0.7,8.2-2.3,12.6-4.8
				c4.5-2.5,8.7-5.5,12.8-9.1c4.1-3.6,7.7-7.4,11-11.3c3.2-4,5.7-7.8,7.4-11.5v-0.4h1.9c13.4-1.2,25.1-4,35.1-8.4
				c10-4.3,19.9-11.2,29.5-20.6l2.2-5.6c0-0.5,0.1-0.9,0.2-1.3c0.1-0.4,0.2-0.7,0.2-0.9L1742.2,207.7z M1601.9,73.3
				c-0.1,0-0.2,0.1-0.3,0.1C1601.7,73.4,1601.7,73.3,1601.9,73.3z M1302,282.7l-1.5,12.6c-1,7.9-2.6,16.5-4.8,25.6
				c-2.7,13.4-6.1,26.6-10.2,39.7c-4.1,13.1-9.5,26-16.1,38.6c-2,3.5-4,6.5-6.1,9.1c-2.1,2.6-4.6,5.3-7.6,8c-1.2,1.2-2.9,2-5,2.4
				c-2.1,0.4-4.1-0.1-6.1-1.3c-1.7-0.5-3.1-1.5-4.1-3.2c-1-1.6-1.5-3.3-1.5-5c0.5-1.2,0.8-2.9,0.9-5c0.1-2.1,0.3-3.8,0.6-5
				c0.5-3.5,1.1-6.9,1.7-10.4c0.6-3.5,1.2-5.7,1.7-6.7c2.7-8.7,6-17.1,9.8-25.2c3.8-8.2,8.2-16.2,13.2-24.1
				c4.9-8.7,10.1-17,15.6-25.1c5.4-8,11-15.8,16.7-23.2l3-4.8V282.7z M1399.8,214.2c-1.9,2.6-3.5,5.1-5,7.6
				c-5,7.4-10.4,14-16.3,19.9c-5.9,5.8-12.4,11.2-19.3,16.1c1-5.2,3-10.7,5.9-16.5c3-5.8,6.5-11.2,10.6-16.1
				c4.1-4.9,8.5-9.2,13.4-12.6c4.8-3.5,9.7-5.6,14.7-6.3c0.5,0,1-0.1,1.5-0.4C1403.4,208.8,1401.6,211.6,1399.8,214.2z
				 M1546.2,251.1l-5.6,7.4l0.4-0.4l-1.1,1.5c-3.7,4-7.6,7.8-11.5,11.5c-1.2,1.5-2.6,2.7-4.1,3.7l0.4-0.4c-4.2,2-6.8,1-7.8-3
				c-0.7-2-1.3-4-1.7-6.1c-0.4-2.1-0.7-4.3-0.9-6.5c0.5-6.2,1.4-12,2.8-17.4c1.4-5.4,3.5-10.6,6.5-15.6c1.2-2.7,2.7-5.4,4.5-8.2
				c1.7-2.7,3.6-5.2,5.6-7.4c0.5-0.7,1.1-0.7,1.9,0l1.9,5.9v-0.4l1.9,5.6c0.2,2.7,1.5,7.3,3.7,13.7l-0.4-0.4l3.7,13.4
				c0,0.5,0.1,1,0.2,1.5C1546.5,250.2,1546.5,250.7,1546.2,251.1z M1644,259.5c-4.8,3.6-9.8,6-15,7.2c-2.7,0.7-4.6-0.1-5.6-2.6
				c0-3.2,0.4-7,1.1-11.3c0.7-4.3,2-8.4,3.7-12.1c7.9,4.2,16.9,6.2,27.1,5.9C1652.6,251.6,1648.9,255.9,1644,259.5z M1665.4,222.2
				c-0.5,2-1.1,4.2-1.9,6.7h0.4c-0.5,1-0.9,1.5-1.3,1.7c-0.4,0.1-1.5,0.2-3.5,0.2c-4.2,0-8.7-0.6-13.5-1.7
				c-4.8-1.1-9.3-2.5-13.5-4.3c-0.7-0.2-1.1-0.7-1.1-1.5c-1.2-7.4,0.7-12.8,5.8-16.1c5.1-3.3,11.6-4.6,19.5-3.9
				c3.7,2.2,6.3,4.5,7.8,6.7c1.5,2.2,2.2,4.5,2.2,6.7C1666.1,218.4,1665.9,220.2,1665.4,222.2z"/>
		</g>
	</g>
	<g id="_x21_web__x3C__x2F_developer_x3E__copia" class="st0">
		<g>
			<path d="M907.6,526.9l0.9-38.7h-9l1,38.7H907.6z M907.1,536.4c-0.9-0.5-1.9-0.8-3.1-0.8c-1.1,0-2.1,0.3-3,0.8
				c-0.9,0.5-1.6,1.3-2.1,2.2c-0.5,0.9-0.8,1.9-0.8,3c0,1.1,0.3,2.1,0.8,3c0.5,0.9,1.2,1.7,2.1,2.2c0.9,0.5,1.9,0.8,3,0.8
				c1.1,0,2.1-0.3,3.1-0.8c0.9-0.5,1.6-1.3,2.2-2.2c0.5-0.9,0.8-1.9,0.8-3c0-1.1-0.3-2.1-0.8-3C908.8,537.6,908.1,536.9,907.1,536.4
				z M966,541.5l-6.3-33.9h-8.9l-6.7,33.9l-5.2-39.5h-8.1l7.9,44.6h10.6l5.9-32.3l5.5,32.3h10.8l7.6-44.6h-7.7L966,541.5z
				 M1016.1,503.5c-2.8-1.8-6.1-2.7-9.9-2.7c-4,0-7.5,1-10.5,3c-3,2-5.3,4.8-6.9,8.3c-1.6,3.5-2.4,7.5-2.4,12
				c0,4.6,0.8,8.7,2.5,12.2c1.6,3.5,4,6.2,7.1,8.2c3.1,1.9,6.9,2.9,11.3,2.9c2.9,0,5.7-0.5,8.5-1.4c2.7-1,5.2-2.3,7.3-4l-3.7-5.1
				c-2,1.4-3.9,2.4-5.8,3c-1.8,0.6-3.9,1-6,1c-2.3,0-4.4-0.5-6.3-1.5c-1.9-1-3.4-2.6-4.5-4.6c-1.1-2.1-1.8-4.7-1.9-7.9h29.8
				c0.1-1.4,0.2-2.8,0.2-4.1c0-4.5-0.7-8.4-2.2-11.7C1021,507.9,1018.9,505.3,1016.1,503.5z M994.8,521c0.3-4.6,1.4-8,3.5-10.3
				c2-2.3,4.7-3.5,8-3.5c3.3,0,5.9,1.2,7.7,3.6c1.9,2.4,2.8,5.8,2.9,10.3H994.8z M1059.6,500.9c-2.5,0-4.8,0.6-6.9,1.7
				c-2.1,1.2-4,2.8-5.6,4.9V483l-8.1,1v62.5h7.1l0.5-4.5c2.9,3.7,6.9,5.6,12,5.6c3.7,0,6.9-1,9.6-3c2.6-2,4.7-4.7,6-8.3
				c1.4-3.5,2.1-7.6,2.1-12.1c0-7.4-1.4-13.1-4.1-17.2C1069.4,502.9,1065.2,500.9,1059.6,500.9z M1064.7,536.9
				c-1.9,2.8-4.6,4.2-8.1,4.2c-1.9,0-3.7-0.5-5.3-1.5c-1.6-1-3-2.3-4.2-4v-21.6c1.3-2,2.9-3.6,4.7-4.9c1.8-1.3,3.7-1.9,5.9-1.9
				c6.6,0,9.9,5.6,9.9,16.9C1067.5,529.9,1066.6,534.1,1064.7,536.9z M1172,496l-32.6,20.2v7.6l32.3,20.2l4.2-5.9l-29.5-18l29.5-18
				L1172,496z M1187,552.4l6.5,2.9l36-74.3l-6.4-3.1L1187,552.4z M1268.1,506c-3-3.4-6.8-5.1-11.6-5.1c-3.6,0-6.7,1-9.4,3
				c-2.6,2-4.7,4.8-6.1,8.3c-1.4,3.5-2.1,7.6-2.1,12.1c0,7.2,1.4,12.9,4.2,17c2.8,4.2,7,6.3,12.6,6.3c2.6,0,4.9-0.6,7-1.7
				c2.1-1.1,4-2.8,5.6-5.1l0.7,5.7h7.1V484l-8.1-1V506z M1268.1,534.4c-2.9,4.5-6.4,6.7-10.4,6.7c-3.3,0-5.8-1.4-7.5-4.2
				c-1.7-2.8-2.6-7-2.6-12.7c0-5.7,0.9-9.9,2.8-12.7c1.9-2.8,4.6-4.2,8.1-4.2c1.9,0,3.7,0.5,5.3,1.4c1.6,0.9,3,2.3,4.2,4V534.4z
				 M1320.2,503.5c-2.8-1.8-6.1-2.7-9.9-2.7c-4,0-7.5,1-10.5,3c-3,2-5.3,4.8-6.9,8.3c-1.6,3.5-2.4,7.5-2.4,12
				c0,4.6,0.8,8.7,2.5,12.2c1.6,3.5,4,6.2,7.1,8.2c3.1,1.9,6.9,2.9,11.3,2.9c2.9,0,5.7-0.5,8.5-1.4c2.7-1,5.2-2.3,7.3-4l-3.7-5.1
				c-2,1.4-3.9,2.4-5.8,3c-1.8,0.6-3.9,1-6,1c-2.3,0-4.4-0.5-6.3-1.5c-1.9-1-3.4-2.6-4.5-4.6c-1.1-2.1-1.8-4.7-1.9-7.9h29.8
				c0.1-1.4,0.2-2.8,0.2-4.1c0-4.5-0.7-8.4-2.2-11.7C1325.1,507.9,1323,505.3,1320.2,503.5z M1298.9,521c0.3-4.6,1.4-8,3.5-10.3
				c2-2.3,4.7-3.5,8-3.5c3.3,0,5.9,1.2,7.7,3.6s2.8,5.8,2.9,10.3H1298.9z M1360.5,539.4l-12.2-37.5h-8.6l15.9,44.6h9.5l16-44.6h-8.3
				L1360.5,539.4z M1421.6,503.5c-2.8-1.8-6.1-2.7-9.9-2.7c-4,0-7.5,1-10.5,3c-3,2-5.3,4.8-6.9,8.3c-1.6,3.5-2.4,7.5-2.4,12
				c0,4.6,0.8,8.7,2.5,12.2c1.6,3.5,4,6.2,7.1,8.2c3.1,1.9,6.9,2.9,11.3,2.9c2.9,0,5.7-0.5,8.5-1.4c2.7-1,5.2-2.3,7.3-4l-3.7-5.1
				c-2,1.4-3.9,2.4-5.8,3c-1.8,0.6-3.9,1-6,1c-2.3,0-4.4-0.5-6.3-1.5c-1.9-1-3.4-2.6-4.5-4.6c-1.1-2.1-1.8-4.7-1.9-7.9h29.8
				c0.1-1.4,0.2-2.8,0.2-4.1c0-4.5-0.7-8.4-2.2-11.7C1426.5,507.9,1424.4,505.3,1421.6,503.5z M1400.3,521c0.3-4.6,1.4-8,3.5-10.3
				c2-2.3,4.7-3.5,8-3.5c3.3,0,5.9,1.2,7.7,3.6c1.9,2.4,2.8,5.8,2.9,10.3H1400.3z M1469.8,540.9c-2.2,0-4-0.5-5.2-1.4
				c-1.3-0.9-1.9-2.4-1.9-4.5v-51H1441v6.2h13.6v44.2c0,2.7,0.6,5,1.7,7c1.1,2,2.7,3.5,4.8,4.5c2.1,1.1,4.5,1.6,7.3,1.6
				c2.2,0,4.2-0.2,6.1-0.7c1.9-0.5,3.5-1,4.9-1.7l-2.1-5.8C1474.6,540.4,1472.1,540.9,1469.8,540.9z M1523.1,503.7
				c-2.9-1.9-6.5-2.9-10.7-2.9c-4.2,0-7.7,1-10.7,2.9c-2.9,2-5.2,4.7-6.7,8.2c-1.5,3.5-2.3,7.6-2.3,12.2c0,4.7,0.7,8.8,2.2,12.3
				c1.5,3.5,3.7,6.2,6.6,8.1c2.9,1.9,6.5,2.9,10.7,2.9c4.1,0,7.7-1,10.6-2.9c2.9-2,5.2-4.7,6.7-8.2c1.5-3.5,2.3-7.6,2.3-12.2
				c0-4.8-0.7-8.9-2.2-12.4C1528.2,508.3,1526,505.6,1523.1,503.7z M1520.6,536.9c-1.8,2.8-4.6,4.2-8.3,4.2c-3.7,0-6.4-1.4-8.3-4.1
				c-1.8-2.8-2.7-7-2.7-12.7c0-5.7,0.9-10,2.8-12.8c1.8-2.8,4.6-4.1,8.3-4.1c3.6,0,6.4,1.4,8.2,4.1c1.8,2.8,2.7,7,2.7,12.7
				C1523.4,529.9,1522.5,534.1,1520.6,536.9z M1566.5,500.9c-2.6,0-5,0.6-7.3,1.8c-2.3,1.2-4.2,3-5.9,5.2l-0.6-6h-7v62.6l8.1-1
				v-21.1c2.9,3.4,6.8,5.1,11.6,5.1c3.7,0,6.9-1,9.4-3c2.6-2,4.5-4.7,5.8-8.2c1.3-3.5,1.9-7.6,1.9-12.2c0-7.4-1.3-13.2-3.8-17.2
				C1576.3,502.9,1572.1,500.9,1566.5,500.9z M1571.4,536.9c-1.8,2.7-4.4,4.1-7.9,4.1c-2,0-3.8-0.5-5.4-1.4c-1.6-0.9-3-2.2-4.2-3.9
				v-21.6c1.3-2,2.9-3.6,4.7-4.9c1.8-1.3,3.7-1.9,5.9-1.9c3.3,0,5.7,1.4,7.3,4.1c1.6,2.7,2.4,7,2.4,12.8
				C1574,529.9,1573.2,534.1,1571.4,536.9z M1624.3,503.5c-2.8-1.8-6.1-2.7-9.9-2.7c-4,0-7.5,1-10.5,3c-3,2-5.3,4.8-6.9,8.3
				c-1.6,3.5-2.4,7.5-2.4,12c0,4.6,0.8,8.7,2.5,12.2c1.6,3.5,4,6.2,7.1,8.2c3.1,1.9,6.9,2.9,11.3,2.9c2.9,0,5.7-0.5,8.5-1.4
				c2.7-1,5.2-2.3,7.3-4l-3.7-5.1c-2,1.4-3.9,2.4-5.8,3c-1.8,0.6-3.9,1-6,1c-2.3,0-4.4-0.5-6.3-1.5c-1.9-1-3.4-2.6-4.5-4.6
				c-1.1-2.1-1.8-4.7-1.9-7.9h29.8c0.1-1.4,0.2-2.8,0.2-4.1c0-4.5-0.7-8.4-2.2-11.7C1629.2,507.9,1627.1,505.3,1624.3,503.5z
				 M1603,521c0.3-4.6,1.4-8,3.5-10.3c2-2.3,4.7-3.5,8-3.5c3.3,0,5.9,1.2,7.7,3.6s2.8,5.8,2.9,10.3H1603z M1677.9,500.9
				c-3.8,0-7,1-9.5,2.9c-2.5,1.9-4.6,4.8-6.4,8.6l-1.5-10.4h-13v6h6.8v32.5h-6.8v6h23.9v-6h-9v-17.9c2.9-9.6,7.7-14.3,14.4-14.3h0
				v9.3h6.3l1.3-15.6c-1.2-0.4-2.2-0.6-3.2-0.8C1680.2,501,1679.1,500.9,1677.9,500.9z M1700.8,496l-3.8,6l29.5,18l-29.5,18.1
				l4.2,5.9l32.3-20.2v-7.7L1700.8,496z"/>
		</g>
	</g>
</g>
</svg>
